<mxfile host="Electron" modified="2023-06-29T17:03:10.158Z" agent="Mozilla/5.0 (Windows NT 10.0; Win64; x64) AppleWebKit/537.36 (KHTML, like Gecko) draw.io/21.5.0 Chrome/112.0.5615.204 Electron/24.5.1 Safari/537.36" etag="wd3uxUBzzyZwsw370-YM" version="21.5.0" type="device">
  <diagram name="Pagina-1" id="6Mq_mjlfumfUOl1YjtqR">
    <mxGraphModel dx="3120" dy="1535" grid="0" gridSize="5" guides="1" tooltips="1" connect="1" arrows="1" fold="1" page="1" pageScale="1" pageWidth="827" pageHeight="1169" math="0" shadow="0">
      <root>
        <mxCell id="0" />
        <mxCell id="1" parent="0" />
        <mxCell id="2qe7vK6OA9ovOPbLx4hL-5" value="&lt;font style=&quot;font-size: 18px;&quot;&gt;model&lt;/font&gt;" style="shape=folder;fontStyle=1;spacingTop=10;tabWidth=40;tabHeight=14;tabPosition=left;html=1;whiteSpace=wrap;align=center;verticalAlign=top;fillColor=#fff2cc;strokeColor=#d6b656;" parent="1" vertex="1">
          <mxGeometry x="41" y="85" width="1043" height="470" as="geometry" />
        </mxCell>
        <mxCell id="2qe7vK6OA9ovOPbLx4hL-6" value="&lt;font style=&quot;font-size: 18px;&quot;&gt;controller&lt;/font&gt;" style="shape=folder;fontStyle=1;spacingTop=10;tabWidth=40;tabHeight=14;tabPosition=left;html=1;whiteSpace=wrap;verticalAlign=top;fillColor=#d5e8d4;strokeColor=#82b366;" parent="1" vertex="1">
          <mxGeometry x="1360" y="155.5" width="415" height="212.5" as="geometry" />
        </mxCell>
        <mxCell id="2qe7vK6OA9ovOPbLx4hL-7" value="&lt;font style=&quot;font-size: 18px;&quot;&gt;utils&lt;/font&gt;" style="shape=folder;fontStyle=1;spacingTop=10;tabWidth=40;tabHeight=14;tabPosition=left;html=1;whiteSpace=wrap;verticalAlign=top;fillColor=#f9f7ed;strokeColor=#36393d;" parent="1" vertex="1">
          <mxGeometry x="1775" y="465" width="350" height="200" as="geometry" />
        </mxCell>
        <mxCell id="2qe7vK6OA9ovOPbLx4hL-8" value="&lt;font style=&quot;font-size: 18px;&quot;&gt;network.message&lt;/font&gt;" style="shape=folder;fontStyle=1;spacingTop=10;tabWidth=40;tabHeight=14;tabPosition=left;html=1;whiteSpace=wrap;verticalAlign=top;fillColor=#eeeeee;strokeColor=#36393d;" parent="1" vertex="1">
          <mxGeometry x="1614" y="714.38" width="712.5" height="386.25" as="geometry" />
        </mxCell>
        <mxCell id="2qe7vK6OA9ovOPbLx4hL-9" value="&lt;font style=&quot;font-size: 18px;&quot;&gt;distributed&lt;/font&gt;" style="shape=folder;fontStyle=1;spacingTop=10;tabWidth=40;tabHeight=14;tabPosition=left;html=1;whiteSpace=wrap;verticalAlign=top;fillColor=#dae8fc;strokeColor=#6c8ebf;" parent="1" vertex="1">
          <mxGeometry x="448" y="680" width="960" height="335" as="geometry" />
        </mxCell>
        <mxCell id="2qe7vK6OA9ovOPbLx4hL-10" value="&lt;font style=&quot;font-size: 18px;&quot;&gt;view&lt;/font&gt;" style="shape=folder;fontStyle=1;spacingTop=10;tabWidth=40;tabHeight=14;tabPosition=left;html=1;whiteSpace=wrap;verticalAlign=top;fillColor=#e1d5e7;strokeColor=#9673a6;" parent="1" vertex="1">
          <mxGeometry x="405" y="1214" width="1623" height="660" as="geometry" />
        </mxCell>
        <mxCell id="2qe7vK6OA9ovOPbLx4hL-39" value="«abstract»&lt;br style=&quot;border-color: var(--border-color); font-weight: 400;&quot;&gt;CommonGoalCard" style="swimlane;fontStyle=1;align=center;verticalAlign=top;childLayout=stackLayout;horizontal=1;startSize=40;horizontalStack=0;resizeParent=1;resizeParentMax=0;resizeLast=0;collapsible=1;marginBottom=0;whiteSpace=wrap;html=1;" parent="1" vertex="1">
          <mxGeometry x="720.5" y="358" width="160" height="50" as="geometry" />
        </mxCell>
        <mxCell id="2qe7vK6OA9ovOPbLx4hL-40" value="" style="line;strokeWidth=1;fillColor=none;align=left;verticalAlign=middle;spacingTop=-1;spacingLeft=3;spacingRight=3;rotatable=0;labelPosition=right;points=[];portConstraint=eastwest;strokeColor=inherit;" parent="2qe7vK6OA9ovOPbLx4hL-39" vertex="1">
          <mxGeometry y="40" width="160" height="10" as="geometry" />
        </mxCell>
        <mxCell id="wJdnqVq0FRM58SnaqcS5-16" style="edgeStyle=orthogonalEdgeStyle;rounded=0;orthogonalLoop=1;jettySize=auto;html=1;exitX=0.093;exitY=-0.017;exitDx=0;exitDy=0;entryX=1;entryY=0.25;entryDx=0;entryDy=0;exitPerimeter=0;endArrow=openThin;endFill=0;" parent="1" source="2qe7vK6OA9ovOPbLx4hL-41" target="2qe7vK6OA9ovOPbLx4hL-43" edge="1">
          <mxGeometry relative="1" as="geometry" />
        </mxCell>
        <mxCell id="2qe7vK6OA9ovOPbLx4hL-41" value="Player" style="swimlane;fontStyle=1;align=center;verticalAlign=top;childLayout=stackLayout;horizontal=1;startSize=23;horizontalStack=0;resizeParent=1;resizeParentMax=0;resizeLast=0;collapsible=1;marginBottom=0;whiteSpace=wrap;html=1;" parent="1" vertex="1">
          <mxGeometry x="341" y="275" width="90" height="39" as="geometry" />
        </mxCell>
        <mxCell id="2qe7vK6OA9ovOPbLx4hL-42" value="" style="line;strokeWidth=1;fillColor=none;align=left;verticalAlign=middle;spacingTop=-1;spacingLeft=3;spacingRight=3;rotatable=0;labelPosition=right;points=[];portConstraint=eastwest;strokeColor=inherit;" parent="2qe7vK6OA9ovOPbLx4hL-41" vertex="1">
          <mxGeometry y="23" width="90" height="16" as="geometry" />
        </mxCell>
        <mxCell id="wJdnqVq0FRM58SnaqcS5-22" style="edgeStyle=orthogonalEdgeStyle;rounded=0;orthogonalLoop=1;jettySize=auto;html=1;exitX=0.5;exitY=1;exitDx=0;exitDy=0;endArrow=open;endFill=0;startArrow=diamond;startFill=0;" parent="1" source="2qe7vK6OA9ovOPbLx4hL-43" target="2qe7vK6OA9ovOPbLx4hL-49" edge="1">
          <mxGeometry relative="1" as="geometry" />
        </mxCell>
        <mxCell id="2qe7vK6OA9ovOPbLx4hL-43" value="Bookshelf" style="swimlane;fontStyle=1;align=center;verticalAlign=top;childLayout=stackLayout;horizontal=1;startSize=30;horizontalStack=0;resizeParent=1;resizeParentMax=0;resizeLast=0;collapsible=1;marginBottom=0;whiteSpace=wrap;html=1;" parent="1" vertex="1">
          <mxGeometry x="111" y="199" width="130" height="46" as="geometry" />
        </mxCell>
        <mxCell id="2qe7vK6OA9ovOPbLx4hL-44" value="" style="line;strokeWidth=1;fillColor=none;align=left;verticalAlign=middle;spacingTop=-1;spacingLeft=3;spacingRight=3;rotatable=0;labelPosition=right;points=[];portConstraint=eastwest;strokeColor=inherit;" parent="2qe7vK6OA9ovOPbLx4hL-43" vertex="1">
          <mxGeometry y="30" width="130" height="16" as="geometry" />
        </mxCell>
        <mxCell id="2qe7vK6OA9ovOPbLx4hL-45" value="Board" style="swimlane;fontStyle=1;align=center;verticalAlign=top;childLayout=stackLayout;horizontal=1;startSize=30;horizontalStack=0;resizeParent=1;resizeParentMax=0;resizeLast=0;collapsible=1;marginBottom=0;whiteSpace=wrap;html=1;" parent="1" vertex="1">
          <mxGeometry x="401" y="143" width="77" height="52" as="geometry" />
        </mxCell>
        <mxCell id="2qe7vK6OA9ovOPbLx4hL-46" value="" style="line;strokeWidth=1;fillColor=none;align=left;verticalAlign=middle;spacingTop=-1;spacingLeft=3;spacingRight=3;rotatable=0;labelPosition=right;points=[];portConstraint=eastwest;strokeColor=inherit;" parent="2qe7vK6OA9ovOPbLx4hL-45" vertex="1">
          <mxGeometry y="30" width="77" height="22" as="geometry" />
        </mxCell>
        <mxCell id="wJdnqVq0FRM58SnaqcS5-51" style="edgeStyle=orthogonalEdgeStyle;rounded=0;orthogonalLoop=1;jettySize=auto;html=1;exitX=0;exitY=0.25;exitDx=0;exitDy=0;entryX=0.5;entryY=1;entryDx=0;entryDy=0;endArrow=open;endFill=0;" parent="1" source="2qe7vK6OA9ovOPbLx4hL-47" target="2qe7vK6OA9ovOPbLx4hL-72" edge="1">
          <mxGeometry relative="1" as="geometry" />
        </mxCell>
        <mxCell id="2qe7vK6OA9ovOPbLx4hL-47" value="PersonalGoalCard" style="swimlane;fontStyle=1;align=center;verticalAlign=top;childLayout=stackLayout;horizontal=1;startSize=30;horizontalStack=0;resizeParent=1;resizeParentMax=0;resizeLast=0;collapsible=1;marginBottom=0;whiteSpace=wrap;html=1;" parent="1" vertex="1">
          <mxGeometry x="249" y="425" width="160" height="50" as="geometry" />
        </mxCell>
        <mxCell id="2qe7vK6OA9ovOPbLx4hL-48" value="" style="line;strokeWidth=1;fillColor=none;align=left;verticalAlign=middle;spacingTop=-1;spacingLeft=3;spacingRight=3;rotatable=0;labelPosition=right;points=[];portConstraint=eastwest;strokeColor=inherit;" parent="2qe7vK6OA9ovOPbLx4hL-47" vertex="1">
          <mxGeometry y="30" width="160" height="20" as="geometry" />
        </mxCell>
        <mxCell id="wJdnqVq0FRM58SnaqcS5-10" style="edgeStyle=orthogonalEdgeStyle;rounded=0;orthogonalLoop=1;jettySize=auto;html=1;endArrow=open;endFill=0;" parent="1" source="2qe7vK6OA9ovOPbLx4hL-49" target="2qe7vK6OA9ovOPbLx4hL-72" edge="1">
          <mxGeometry relative="1" as="geometry" />
        </mxCell>
        <mxCell id="2qe7vK6OA9ovOPbLx4hL-49" value="ItemTile" style="swimlane;fontStyle=1;align=center;verticalAlign=top;childLayout=stackLayout;horizontal=1;startSize=30;horizontalStack=0;resizeParent=1;resizeParentMax=0;resizeLast=0;collapsible=1;marginBottom=0;whiteSpace=wrap;html=1;" parent="1" vertex="1">
          <mxGeometry x="116" y="292" width="120" height="44" as="geometry" />
        </mxCell>
        <mxCell id="2qe7vK6OA9ovOPbLx4hL-50" value="" style="line;strokeWidth=1;fillColor=none;align=left;verticalAlign=middle;spacingTop=-1;spacingLeft=3;spacingRight=3;rotatable=0;labelPosition=right;points=[];portConstraint=eastwest;strokeColor=inherit;" parent="2qe7vK6OA9ovOPbLx4hL-49" vertex="1">
          <mxGeometry y="30" width="120" height="14" as="geometry" />
        </mxCell>
        <mxCell id="wJdnqVq0FRM58SnaqcS5-24" style="edgeStyle=orthogonalEdgeStyle;rounded=0;orthogonalLoop=1;jettySize=auto;html=1;endArrow=open;endFill=0;" parent="1" source="2qe7vK6OA9ovOPbLx4hL-51" target="2qe7vK6OA9ovOPbLx4hL-41" edge="1">
          <mxGeometry relative="1" as="geometry" />
        </mxCell>
        <mxCell id="wJdnqVq0FRM58SnaqcS5-48" style="edgeStyle=orthogonalEdgeStyle;rounded=0;orthogonalLoop=1;jettySize=auto;html=1;exitX=0.5;exitY=0;exitDx=0;exitDy=0;entryX=1;entryY=0.5;entryDx=0;entryDy=0;endArrow=open;endFill=0;" parent="1" source="2qe7vK6OA9ovOPbLx4hL-51" target="2qe7vK6OA9ovOPbLx4hL-45" edge="1">
          <mxGeometry relative="1" as="geometry" />
        </mxCell>
        <mxCell id="2qe7vK6OA9ovOPbLx4hL-51" value="GameView" style="swimlane;fontStyle=1;align=center;verticalAlign=top;childLayout=stackLayout;horizontal=1;startSize=30;horizontalStack=0;resizeParent=1;resizeParentMax=0;resizeLast=0;collapsible=1;marginBottom=0;whiteSpace=wrap;html=1;" parent="1" vertex="1">
          <mxGeometry x="530.5" y="205.5" width="100" height="49" as="geometry" />
        </mxCell>
        <mxCell id="2qe7vK6OA9ovOPbLx4hL-52" value="" style="line;strokeWidth=1;fillColor=none;align=left;verticalAlign=middle;spacingTop=-1;spacingLeft=3;spacingRight=3;rotatable=0;labelPosition=right;points=[];portConstraint=eastwest;strokeColor=inherit;" parent="2qe7vK6OA9ovOPbLx4hL-51" vertex="1">
          <mxGeometry y="30" width="100" height="19" as="geometry" />
        </mxCell>
        <mxCell id="2qe7vK6OA9ovOPbLx4hL-55" value="Bag" style="swimlane;fontStyle=1;align=center;verticalAlign=top;childLayout=stackLayout;horizontal=1;startSize=22;horizontalStack=0;resizeParent=1;resizeParentMax=0;resizeLast=0;collapsible=1;marginBottom=0;whiteSpace=wrap;html=1;" parent="1" vertex="1">
          <mxGeometry x="341" y="326" width="90" height="42" as="geometry" />
        </mxCell>
        <mxCell id="2qe7vK6OA9ovOPbLx4hL-56" value="" style="line;strokeWidth=1;fillColor=none;align=left;verticalAlign=middle;spacingTop=-1;spacingLeft=3;spacingRight=3;rotatable=0;labelPosition=right;points=[];portConstraint=eastwest;strokeColor=inherit;" parent="2qe7vK6OA9ovOPbLx4hL-55" vertex="1">
          <mxGeometry y="22" width="90" height="20" as="geometry" />
        </mxCell>
        <mxCell id="2qe7vK6OA9ovOPbLx4hL-59" value="«interface»&lt;br&gt;&lt;b&gt;Observer&lt;/b&gt;" style="html=1;whiteSpace=wrap;" parent="1" vertex="1">
          <mxGeometry x="1832.5" y="510" width="110" height="50" as="geometry" />
        </mxCell>
        <mxCell id="EsLmEgkiOm4dnzLNr7Mo-23" value="+notifies" style="edgeStyle=orthogonalEdgeStyle;rounded=0;orthogonalLoop=1;jettySize=auto;html=1;exitX=0.5;exitY=0;exitDx=0;exitDy=0;entryX=1;entryY=0.5;entryDx=0;entryDy=0;endArrow=open;endFill=0;" parent="1" source="2qe7vK6OA9ovOPbLx4hL-60" target="2qe7vK6OA9ovOPbLx4hL-59" edge="1">
          <mxGeometry x="-0.1666" y="-27" relative="1" as="geometry">
            <mxPoint as="offset" />
          </mxGeometry>
        </mxCell>
        <mxCell id="2qe7vK6OA9ovOPbLx4hL-60" value="Observable" style="swimlane;fontStyle=1;align=center;verticalAlign=top;childLayout=stackLayout;horizontal=1;startSize=30;horizontalStack=0;resizeParent=1;resizeParentMax=0;resizeLast=0;collapsible=1;marginBottom=0;whiteSpace=wrap;html=1;" parent="1" vertex="1">
          <mxGeometry x="1927.5" y="590" width="160" height="52" as="geometry" />
        </mxCell>
        <mxCell id="2qe7vK6OA9ovOPbLx4hL-61" value="" style="line;strokeWidth=1;align=left;verticalAlign=middle;spacingTop=-1;spacingLeft=3;spacingRight=3;rotatable=0;labelPosition=right;points=[];portConstraint=eastwest;" parent="2qe7vK6OA9ovOPbLx4hL-60" vertex="1">
          <mxGeometry y="30" width="160" height="22" as="geometry" />
        </mxCell>
        <mxCell id="EsLmEgkiOm4dnzLNr7Mo-4" style="edgeStyle=orthogonalEdgeStyle;rounded=0;orthogonalLoop=1;jettySize=auto;html=1;exitX=1;exitY=0.25;exitDx=0;exitDy=0;entryX=0;entryY=0.25;entryDx=0;entryDy=0;endArrow=open;endFill=0;" parent="1" source="2qe7vK6OA9ovOPbLx4hL-62" target="2qe7vK6OA9ovOPbLx4hL-64" edge="1">
          <mxGeometry relative="1" as="geometry" />
        </mxCell>
        <mxCell id="EsLmEgkiOm4dnzLNr7Mo-5" value="+controls" style="edgeStyle=orthogonalEdgeStyle;rounded=0;orthogonalLoop=1;jettySize=auto;html=1;exitX=0.5;exitY=0;exitDx=0;exitDy=0;entryX=0.5;entryY=0;entryDx=0;entryDy=0;endArrow=open;endFill=0;" parent="1" source="2qe7vK6OA9ovOPbLx4hL-62" target="2qe7vK6OA9ovOPbLx4hL-53" edge="1">
          <mxGeometry x="0.0052" y="-10" relative="1" as="geometry">
            <Array as="points">
              <mxPoint x="1230" y="80" />
              <mxPoint x="734" y="80" />
            </Array>
            <mxPoint as="offset" />
          </mxGeometry>
        </mxCell>
        <mxCell id="2qe7vK6OA9ovOPbLx4hL-62" value="GameController" style="swimlane;fontStyle=1;align=center;verticalAlign=top;childLayout=stackLayout;horizontal=1;startSize=30;horizontalStack=0;resizeParent=1;resizeParentMax=0;resizeLast=0;collapsible=1;marginBottom=0;whiteSpace=wrap;html=1;" parent="1" vertex="1">
          <mxGeometry x="1375" y="205.5" width="140" height="50" as="geometry" />
        </mxCell>
        <mxCell id="2qe7vK6OA9ovOPbLx4hL-63" value="" style="line;strokeWidth=1;fillColor=none;align=left;verticalAlign=middle;spacingTop=-1;spacingLeft=3;spacingRight=3;rotatable=0;labelPosition=right;points=[];portConstraint=eastwest;strokeColor=inherit;" parent="2qe7vK6OA9ovOPbLx4hL-62" vertex="1">
          <mxGeometry y="30" width="140" height="20" as="geometry" />
        </mxCell>
        <mxCell id="2qe7vK6OA9ovOPbLx4hL-64" value="TurnController" style="swimlane;fontStyle=1;align=center;verticalAlign=top;childLayout=stackLayout;horizontal=1;startSize=30;horizontalStack=0;resizeParent=1;resizeParentMax=0;resizeLast=0;collapsible=1;marginBottom=0;whiteSpace=wrap;html=1;" parent="1" vertex="1">
          <mxGeometry x="1615" y="205.5" width="120" height="50" as="geometry" />
        </mxCell>
        <mxCell id="2qe7vK6OA9ovOPbLx4hL-65" value="" style="line;strokeWidth=1;fillColor=none;align=left;verticalAlign=middle;spacingTop=-1;spacingLeft=3;spacingRight=3;rotatable=0;labelPosition=right;points=[];portConstraint=eastwest;strokeColor=inherit;" parent="2qe7vK6OA9ovOPbLx4hL-64" vertex="1">
          <mxGeometry y="30" width="120" height="20" as="geometry" />
        </mxCell>
        <mxCell id="EsLmEgkiOm4dnzLNr7Mo-65" style="edgeStyle=orthogonalEdgeStyle;shape=connector;rounded=0;orthogonalLoop=1;jettySize=auto;html=1;exitX=0;exitY=0.25;exitDx=0;exitDy=0;entryX=0.5;entryY=0;entryDx=0;entryDy=0;labelBackgroundColor=default;strokeColor=default;fontFamily=Helvetica;fontSize=11;fontColor=default;endArrow=open;endFill=0;startArrow=open;startFill=0;" parent="1" source="2qe7vK6OA9ovOPbLx4hL-66" target="2qe7vK6OA9ovOPbLx4hL-85" edge="1">
          <mxGeometry relative="1" as="geometry">
            <Array as="points">
              <mxPoint x="1210" y="308" />
              <mxPoint x="1210" y="580" />
              <mxPoint x="1044" y="580" />
            </Array>
          </mxGeometry>
        </mxCell>
        <mxCell id="2qe7vK6OA9ovOPbLx4hL-66" value="PreGameController" style="swimlane;fontStyle=1;align=center;verticalAlign=top;childLayout=stackLayout;horizontal=1;startSize=30;horizontalStack=0;resizeParent=1;resizeParentMax=0;resizeLast=0;collapsible=1;marginBottom=0;whiteSpace=wrap;html=1;" parent="1" vertex="1">
          <mxGeometry x="1520" y="295.5" width="160" height="50" as="geometry" />
        </mxCell>
        <mxCell id="2qe7vK6OA9ovOPbLx4hL-67" value="" style="line;strokeWidth=1;fillColor=none;align=left;verticalAlign=middle;spacingTop=-1;spacingLeft=3;spacingRight=3;rotatable=0;labelPosition=right;points=[];portConstraint=eastwest;strokeColor=inherit;" parent="2qe7vK6OA9ovOPbLx4hL-66" vertex="1">
          <mxGeometry y="30" width="160" height="20" as="geometry" />
        </mxCell>
        <mxCell id="2qe7vK6OA9ovOPbLx4hL-72" value="«enumeration»&lt;br&gt;ItemType" style="swimlane;fontStyle=0;childLayout=stackLayout;horizontal=1;startSize=30;fillColor=none;horizontalStack=0;resizeParent=1;resizeParentMax=0;resizeLast=0;collapsible=1;marginBottom=0;whiteSpace=wrap;html=1;" parent="1" vertex="1">
          <mxGeometry x="106" y="368" width="140" height="40" as="geometry" />
        </mxCell>
        <mxCell id="2qe7vK6OA9ovOPbLx4hL-73" value="&lt;br&gt;" style="text;strokeColor=none;fillColor=none;align=left;verticalAlign=top;spacingLeft=4;spacingRight=4;overflow=hidden;rotatable=0;points=[[0,0.5],[1,0.5]];portConstraint=eastwest;whiteSpace=wrap;html=1;" parent="2qe7vK6OA9ovOPbLx4hL-72" vertex="1">
          <mxGeometry y="30" width="140" height="10" as="geometry" />
        </mxCell>
        <mxCell id="2qe7vK6OA9ovOPbLx4hL-81" value="«interface»&lt;br&gt;&lt;b&gt;Client&lt;/b&gt;" style="html=1;whiteSpace=wrap;" parent="1" vertex="1">
          <mxGeometry x="788" y="897.5" width="110" height="50" as="geometry" />
        </mxCell>
        <mxCell id="2qe7vK6OA9ovOPbLx4hL-82" value="«interface»&lt;br&gt;&lt;b&gt;Server&lt;/b&gt;" style="html=1;whiteSpace=wrap;" parent="1" vertex="1">
          <mxGeometry x="778" y="777.5" width="110" height="50" as="geometry" />
        </mxCell>
        <mxCell id="EsLmEgkiOm4dnzLNr7Mo-71" style="edgeStyle=orthogonalEdgeStyle;shape=connector;rounded=0;orthogonalLoop=1;jettySize=auto;html=1;entryX=0.5;entryY=0;entryDx=0;entryDy=0;labelBackgroundColor=default;strokeColor=default;fontFamily=Helvetica;fontSize=11;fontColor=default;endArrow=open;endFill=0;" parent="1" source="2qe7vK6OA9ovOPbLx4hL-83" target="2qe7vK6OA9ovOPbLx4hL-92" edge="1">
          <mxGeometry relative="1" as="geometry" />
        </mxCell>
        <mxCell id="2qe7vK6OA9ovOPbLx4hL-83" value="ClientInfo" style="swimlane;fontStyle=1;align=center;verticalAlign=top;childLayout=stackLayout;horizontal=1;startSize=30;horizontalStack=0;resizeParent=1;resizeParentMax=0;resizeLast=0;collapsible=1;marginBottom=0;whiteSpace=wrap;html=1;" parent="1" vertex="1">
          <mxGeometry x="1225" y="874" width="160" height="49" as="geometry" />
        </mxCell>
        <mxCell id="2qe7vK6OA9ovOPbLx4hL-84" value="" style="line;strokeWidth=1;fillColor=none;align=left;verticalAlign=middle;spacingTop=-1;spacingLeft=3;spacingRight=3;rotatable=0;labelPosition=right;points=[];portConstraint=eastwest;strokeColor=inherit;" parent="2qe7vK6OA9ovOPbLx4hL-83" vertex="1">
          <mxGeometry y="30" width="160" height="19" as="geometry" />
        </mxCell>
        <mxCell id="EsLmEgkiOm4dnzLNr7Mo-75" style="edgeStyle=orthogonalEdgeStyle;shape=connector;rounded=0;orthogonalLoop=1;jettySize=auto;html=1;exitX=0.5;exitY=1;exitDx=0;exitDy=0;entryX=0.5;entryY=0;entryDx=0;entryDy=0;labelBackgroundColor=default;strokeColor=default;fontFamily=Helvetica;fontSize=11;fontColor=default;endArrow=open;endFill=0;startArrow=diamond;startFill=0;" parent="1" source="2qe7vK6OA9ovOPbLx4hL-85" target="2qe7vK6OA9ovOPbLx4hL-87" edge="1">
          <mxGeometry relative="1" as="geometry" />
        </mxCell>
        <mxCell id="EsLmEgkiOm4dnzLNr7Mo-76" style="edgeStyle=orthogonalEdgeStyle;shape=connector;rounded=0;orthogonalLoop=1;jettySize=auto;html=1;exitX=1;exitY=0.25;exitDx=0;exitDy=0;labelBackgroundColor=default;strokeColor=default;fontFamily=Helvetica;fontSize=11;fontColor=default;endArrow=none;endFill=0;dashed=1;dashPattern=12 12;entryX=0;entryY=0;entryDx=0;entryDy=107.0625;entryPerimeter=0;" parent="1" source="2qe7vK6OA9ovOPbLx4hL-85" edge="1" target="2qe7vK6OA9ovOPbLx4hL-8">
          <mxGeometry relative="1" as="geometry">
            <mxPoint x="1205" y="762" as="targetPoint" />
            <Array as="points">
              <mxPoint x="1124" y="772" />
              <mxPoint x="1614" y="772" />
            </Array>
          </mxGeometry>
        </mxCell>
        <mxCell id="EsLmEgkiOm4dnzLNr7Mo-80" style="edgeStyle=orthogonalEdgeStyle;shape=connector;rounded=0;orthogonalLoop=1;jettySize=auto;html=1;exitX=1;exitY=0.5;exitDx=0;exitDy=0;entryX=0.5;entryY=0;entryDx=0;entryDy=0;labelBackgroundColor=default;strokeColor=default;fontFamily=Helvetica;fontSize=11;fontColor=default;endArrow=open;endFill=0;startArrow=diamond;startFill=0;" parent="1" source="2qe7vK6OA9ovOPbLx4hL-85" target="2qe7vK6OA9ovOPbLx4hL-83" edge="1">
          <mxGeometry relative="1" as="geometry" />
        </mxCell>
        <mxCell id="2qe7vK6OA9ovOPbLx4hL-85" value="ServerImpl" style="swimlane;fontStyle=1;align=center;verticalAlign=top;childLayout=stackLayout;horizontal=1;startSize=30;horizontalStack=0;resizeParent=1;resizeParentMax=0;resizeLast=0;collapsible=1;marginBottom=0;whiteSpace=wrap;html=1;" parent="1" vertex="1">
          <mxGeometry x="963" y="765" width="161" height="50" as="geometry" />
        </mxCell>
        <mxCell id="2qe7vK6OA9ovOPbLx4hL-86" value="" style="line;strokeWidth=1;fillColor=none;align=left;verticalAlign=middle;spacingTop=-1;spacingLeft=3;spacingRight=3;rotatable=0;labelPosition=right;points=[];portConstraint=eastwest;strokeColor=inherit;" parent="2qe7vK6OA9ovOPbLx4hL-85" vertex="1">
          <mxGeometry y="30" width="161" height="20" as="geometry" />
        </mxCell>
        <mxCell id="EsLmEgkiOm4dnzLNr7Mo-72" style="edgeStyle=orthogonalEdgeStyle;shape=connector;rounded=0;orthogonalLoop=1;jettySize=auto;html=1;exitX=0.998;exitY=0.234;exitDx=0;exitDy=0;entryX=0.75;entryY=0;entryDx=0;entryDy=0;labelBackgroundColor=default;strokeColor=default;fontFamily=Helvetica;fontSize=11;fontColor=default;endArrow=open;endFill=0;exitPerimeter=0;" parent="1" source="2qe7vK6OA9ovOPbLx4hL-87" target="2qe7vK6OA9ovOPbLx4hL-53" edge="1">
          <mxGeometry relative="1" as="geometry">
            <Array as="points">
              <mxPoint x="1138" y="852" />
              <mxPoint x="1138" y="125" />
              <mxPoint x="743" y="125" />
            </Array>
          </mxGeometry>
        </mxCell>
        <mxCell id="2qe7vK6OA9ovOPbLx4hL-87" value="Lobby" style="swimlane;fontStyle=1;align=center;verticalAlign=top;childLayout=stackLayout;horizontal=1;startSize=30;horizontalStack=0;resizeParent=1;resizeParentMax=0;resizeLast=0;collapsible=1;marginBottom=0;whiteSpace=wrap;html=1;" parent="1" vertex="1">
          <mxGeometry x="963" y="843" width="160" height="40" as="geometry" />
        </mxCell>
        <mxCell id="2qe7vK6OA9ovOPbLx4hL-88" value="" style="line;strokeWidth=1;fillColor=none;align=left;verticalAlign=middle;spacingTop=-1;spacingLeft=3;spacingRight=3;rotatable=0;labelPosition=right;points=[];portConstraint=eastwest;strokeColor=inherit;" parent="2qe7vK6OA9ovOPbLx4hL-87" vertex="1">
          <mxGeometry y="30" width="160" height="10" as="geometry" />
        </mxCell>
        <mxCell id="EsLmEgkiOm4dnzLNr7Mo-67" style="edgeStyle=orthogonalEdgeStyle;shape=connector;rounded=0;orthogonalLoop=1;jettySize=auto;html=1;exitX=0.75;exitY=1;exitDx=0;exitDy=0;entryX=0.5;entryY=0;entryDx=0;entryDy=0;labelBackgroundColor=default;strokeColor=default;fontFamily=Helvetica;fontSize=11;fontColor=default;endArrow=open;endFill=0;" parent="1" source="2qe7vK6OA9ovOPbLx4hL-89" target="2qe7vK6OA9ovOPbLx4hL-118" edge="1">
          <mxGeometry relative="1" as="geometry">
            <Array as="points">
              <mxPoint x="1083" y="1214" />
              <mxPoint x="1140" y="1214" />
            </Array>
          </mxGeometry>
        </mxCell>
        <mxCell id="2qe7vK6OA9ovOPbLx4hL-89" value="ClientImpl" style="swimlane;fontStyle=1;align=center;verticalAlign=top;childLayout=stackLayout;horizontal=1;startSize=30;horizontalStack=0;resizeParent=1;resizeParentMax=0;resizeLast=0;collapsible=1;marginBottom=0;whiteSpace=wrap;html=1;" parent="1" vertex="1">
          <mxGeometry x="963" y="910" width="160" height="40" as="geometry" />
        </mxCell>
        <mxCell id="2qe7vK6OA9ovOPbLx4hL-90" value="" style="line;strokeWidth=1;fillColor=none;align=left;verticalAlign=middle;spacingTop=-1;spacingLeft=3;spacingRight=3;rotatable=0;labelPosition=right;points=[];portConstraint=eastwest;strokeColor=inherit;" parent="2qe7vK6OA9ovOPbLx4hL-89" vertex="1">
          <mxGeometry y="30" width="160" height="10" as="geometry" />
        </mxCell>
        <mxCell id="2qe7vK6OA9ovOPbLx4hL-92" value="«enumeration»&lt;br&gt;ClientState" style="swimlane;fontStyle=0;childLayout=stackLayout;horizontal=1;startSize=30;fillColor=none;horizontalStack=0;resizeParent=1;resizeParentMax=0;resizeLast=0;collapsible=1;marginBottom=0;whiteSpace=wrap;html=1;" parent="1" vertex="1">
          <mxGeometry x="1235" y="957" width="140" height="40" as="geometry" />
        </mxCell>
        <mxCell id="2qe7vK6OA9ovOPbLx4hL-93" value="&lt;br&gt;" style="text;strokeColor=none;fillColor=none;align=left;verticalAlign=top;spacingLeft=4;spacingRight=4;overflow=hidden;rotatable=0;points=[[0,0.5],[1,0.5]];portConstraint=eastwest;whiteSpace=wrap;html=1;" parent="2qe7vK6OA9ovOPbLx4hL-92" vertex="1">
          <mxGeometry y="30" width="140" height="10" as="geometry" />
        </mxCell>
        <mxCell id="2qe7vK6OA9ovOPbLx4hL-95" value="socket.middleware" style="shape=folder;fontStyle=1;spacingTop=10;tabWidth=40;tabHeight=14;tabPosition=left;html=1;whiteSpace=wrap;verticalAlign=top;fillColor=#bac8d3;strokeColor=#23445d;" parent="1" vertex="1">
          <mxGeometry x="465.5" y="715" width="265" height="275" as="geometry" />
        </mxCell>
        <mxCell id="2qe7vK6OA9ovOPbLx4hL-96" value="ClientSkeleton" style="swimlane;fontStyle=1;align=center;verticalAlign=top;childLayout=stackLayout;horizontal=1;startSize=30;horizontalStack=0;resizeParent=1;resizeParentMax=0;resizeLast=0;collapsible=1;marginBottom=0;whiteSpace=wrap;html=1;" parent="1" vertex="1">
          <mxGeometry x="518" y="907.5" width="160" height="52" as="geometry" />
        </mxCell>
        <mxCell id="2qe7vK6OA9ovOPbLx4hL-97" value="" style="line;strokeWidth=1;fillColor=none;align=left;verticalAlign=middle;spacingTop=-1;spacingLeft=3;spacingRight=3;rotatable=0;labelPosition=right;points=[];portConstraint=eastwest;strokeColor=inherit;" parent="2qe7vK6OA9ovOPbLx4hL-96" vertex="1">
          <mxGeometry y="30" width="160" height="22" as="geometry" />
        </mxCell>
        <mxCell id="2qe7vK6OA9ovOPbLx4hL-98" value="ServerStub" style="swimlane;fontStyle=1;align=center;verticalAlign=top;childLayout=stackLayout;horizontal=1;startSize=30;horizontalStack=0;resizeParent=1;resizeParentMax=0;resizeLast=0;collapsible=1;marginBottom=0;whiteSpace=wrap;html=1;" parent="1" vertex="1">
          <mxGeometry x="518" y="781" width="160" height="50" as="geometry" />
        </mxCell>
        <mxCell id="2qe7vK6OA9ovOPbLx4hL-99" value="" style="line;strokeWidth=1;fillColor=none;align=left;verticalAlign=middle;spacingTop=-1;spacingLeft=3;spacingRight=3;rotatable=0;labelPosition=right;points=[];portConstraint=eastwest;strokeColor=inherit;" parent="2qe7vK6OA9ovOPbLx4hL-98" vertex="1">
          <mxGeometry y="30" width="160" height="20" as="geometry" />
        </mxCell>
        <mxCell id="0dxOLFmI-FpMerj6NasB-47" style="edgeStyle=orthogonalEdgeStyle;rounded=0;orthogonalLoop=1;jettySize=auto;html=1;exitX=1;exitY=0.25;exitDx=0;exitDy=0;entryX=0;entryY=0.5;entryDx=0;entryDy=0;endArrow=open;endFill=0;startArrow=diamond;startFill=0;" parent="1" source="2qe7vK6OA9ovOPbLx4hL-100" target="0dxOLFmI-FpMerj6NasB-45" edge="1">
          <mxGeometry relative="1" as="geometry" />
        </mxCell>
        <mxCell id="2qe7vK6OA9ovOPbLx4hL-100" value="&lt;span style=&quot;font-weight: normal;&quot;&gt;«abstract»&lt;br&gt;&lt;/span&gt;Message" style="swimlane;fontStyle=1;align=center;verticalAlign=top;childLayout=stackLayout;horizontal=1;startSize=40;horizontalStack=0;resizeParent=1;resizeParentMax=0;resizeLast=0;collapsible=1;marginBottom=0;whiteSpace=wrap;html=1;" parent="1" vertex="1">
          <mxGeometry x="1815.25" y="764.38" width="160" height="55" as="geometry" />
        </mxCell>
        <mxCell id="2qe7vK6OA9ovOPbLx4hL-101" value="" style="line;strokeWidth=1;fillColor=none;align=left;verticalAlign=middle;spacingTop=-1;spacingLeft=3;spacingRight=3;rotatable=0;labelPosition=right;points=[];portConstraint=eastwest;strokeColor=inherit;" parent="2qe7vK6OA9ovOPbLx4hL-100" vertex="1">
          <mxGeometry y="40" width="160" height="15" as="geometry" />
        </mxCell>
        <mxCell id="0dxOLFmI-FpMerj6NasB-43" style="edgeStyle=orthogonalEdgeStyle;rounded=0;orthogonalLoop=1;jettySize=auto;html=1;entryX=0.5;entryY=0;entryDx=0;entryDy=0;endArrow=block;endSize=12;endFill=0;dashed=1;" parent="1" source="2qe7vK6OA9ovOPbLx4hL-102" target="0dxOLFmI-FpMerj6NasB-42" edge="1">
          <mxGeometry relative="1" as="geometry" />
        </mxCell>
        <mxCell id="2qe7vK6OA9ovOPbLx4hL-102" value="«abstract»&lt;b&gt;&lt;br&gt;MessageToClient&lt;/b&gt;" style="html=1;whiteSpace=wrap;" parent="1" vertex="1">
          <mxGeometry x="1785.25" y="930.38" width="110" height="50" as="geometry" />
        </mxCell>
        <mxCell id="0dxOLFmI-FpMerj6NasB-44" style="edgeStyle=orthogonalEdgeStyle;rounded=0;orthogonalLoop=1;jettySize=auto;html=1;exitX=1;exitY=0.5;exitDx=0;exitDy=0;entryX=0.5;entryY=0;entryDx=0;entryDy=0;endArrow=block;dashed=1;endFill=0;endSize=12;" parent="1" source="2qe7vK6OA9ovOPbLx4hL-103" target="0dxOLFmI-FpMerj6NasB-41" edge="1">
          <mxGeometry relative="1" as="geometry" />
        </mxCell>
        <mxCell id="2qe7vK6OA9ovOPbLx4hL-103" value="&lt;span style=&quot;border-color: var(--border-color);&quot;&gt;«abstract»&lt;br&gt;&lt;b&gt;MessageToServer&lt;/b&gt;&lt;/span&gt;" style="html=1;whiteSpace=wrap;" parent="1" vertex="1">
          <mxGeometry x="1915.25" y="930.38" width="110" height="50" as="geometry" />
        </mxCell>
        <mxCell id="2qe7vK6OA9ovOPbLx4hL-110" value="ChatMessage" style="swimlane;fontStyle=1;align=center;verticalAlign=top;childLayout=stackLayout;horizontal=1;startSize=30;horizontalStack=0;resizeParent=1;resizeParentMax=0;resizeLast=0;collapsible=1;marginBottom=0;whiteSpace=wrap;html=1;" parent="1" vertex="1">
          <mxGeometry x="1630.25" y="859.38" width="160" height="45" as="geometry" />
        </mxCell>
        <mxCell id="2qe7vK6OA9ovOPbLx4hL-111" value="" style="line;strokeWidth=1;fillColor=none;align=left;verticalAlign=middle;spacingTop=-1;spacingLeft=3;spacingRight=3;rotatable=0;labelPosition=right;points=[];portConstraint=eastwest;strokeColor=inherit;" parent="2qe7vK6OA9ovOPbLx4hL-110" vertex="1">
          <mxGeometry y="30" width="160" height="15" as="geometry" />
        </mxCell>
        <mxCell id="2qe7vK6OA9ovOPbLx4hL-113" value="HeartBeatMessage" style="swimlane;fontStyle=1;align=center;verticalAlign=top;childLayout=stackLayout;horizontal=1;startSize=30;horizontalStack=0;resizeParent=1;resizeParentMax=0;resizeLast=0;collapsible=1;marginBottom=0;whiteSpace=wrap;html=1;" parent="1" vertex="1">
          <mxGeometry x="2010.25" y="859.38" width="160" height="45" as="geometry" />
        </mxCell>
        <mxCell id="2qe7vK6OA9ovOPbLx4hL-114" value="" style="line;strokeWidth=1;fillColor=none;align=left;verticalAlign=middle;spacingTop=-1;spacingLeft=3;spacingRight=3;rotatable=0;labelPosition=right;points=[];portConstraint=eastwest;strokeColor=inherit;" parent="2qe7vK6OA9ovOPbLx4hL-113" vertex="1">
          <mxGeometry y="30" width="160" height="15" as="geometry" />
        </mxCell>
        <mxCell id="2qe7vK6OA9ovOPbLx4hL-117" value="«interface»&lt;br&gt;&lt;b&gt;View&lt;/b&gt;" style="html=1;whiteSpace=wrap;" parent="1" vertex="1">
          <mxGeometry x="855" y="1263" width="110" height="50" as="geometry" />
        </mxCell>
        <mxCell id="2qe7vK6OA9ovOPbLx4hL-118" value="&lt;span style=&quot;font-weight: normal;&quot;&gt;«abstract»&lt;br&gt;&lt;/span&gt;VirtualView" style="swimlane;fontStyle=1;align=center;verticalAlign=top;childLayout=stackLayout;horizontal=1;startSize=40;horizontalStack=0;resizeParent=1;resizeParentMax=0;resizeLast=0;collapsible=1;marginBottom=0;whiteSpace=wrap;html=1;" parent="1" vertex="1">
          <mxGeometry x="1060" y="1258" width="160" height="60" as="geometry" />
        </mxCell>
        <mxCell id="2qe7vK6OA9ovOPbLx4hL-119" value="" style="line;strokeWidth=1;fillColor=none;align=left;verticalAlign=middle;spacingTop=-1;spacingLeft=3;spacingRight=3;rotatable=0;labelPosition=right;points=[];portConstraint=eastwest;strokeColor=inherit;" parent="2qe7vK6OA9ovOPbLx4hL-118" vertex="1">
          <mxGeometry y="40" width="160" height="20" as="geometry" />
        </mxCell>
        <mxCell id="2qe7vK6OA9ovOPbLx4hL-120" value="&lt;font style=&quot;font-size: 18px;&quot;&gt;tui&lt;/font&gt;" style="shape=folder;fontStyle=1;spacingTop=10;tabWidth=40;tabHeight=14;tabPosition=left;html=1;whiteSpace=wrap;verticalAlign=top;fillColor=#d0cee2;strokeColor=#56517e;" parent="1" vertex="1">
          <mxGeometry x="455" y="1368" width="551" height="345" as="geometry" />
        </mxCell>
        <mxCell id="2qe7vK6OA9ovOPbLx4hL-121" value="&lt;font style=&quot;font-size: 18px;&quot;&gt;gui&lt;/font&gt;" style="shape=folder;fontStyle=1;spacingTop=10;tabWidth=40;tabHeight=14;tabPosition=left;html=1;whiteSpace=wrap;verticalAlign=top;fillColor=#d0cee2;strokeColor=#56517e;" parent="1" vertex="1">
          <mxGeometry x="1200" y="1394" width="780" height="447" as="geometry" />
        </mxCell>
        <mxCell id="2qe7vK6OA9ovOPbLx4hL-122" value="«enumeration»&lt;br&gt;ActionType" style="swimlane;fontStyle=0;childLayout=stackLayout;horizontal=1;startSize=30;fillColor=none;horizontalStack=0;resizeParent=1;resizeParentMax=0;resizeLast=0;collapsible=1;marginBottom=0;whiteSpace=wrap;html=1;" parent="1" vertex="1">
          <mxGeometry x="504" y="1433.5" width="140" height="40" as="geometry" />
        </mxCell>
        <mxCell id="2qe7vK6OA9ovOPbLx4hL-124" value="«enumeration»&lt;br&gt;PlayerState" style="swimlane;fontStyle=0;childLayout=stackLayout;horizontal=1;startSize=30;fillColor=none;horizontalStack=0;resizeParent=1;resizeParentMax=0;resizeLast=0;collapsible=1;marginBottom=0;whiteSpace=wrap;html=1;" parent="1" vertex="1">
          <mxGeometry x="504" y="1630" width="140" height="40" as="geometry" />
        </mxCell>
        <mxCell id="2qe7vK6OA9ovOPbLx4hL-125" value="&lt;br&gt;" style="text;strokeColor=none;fillColor=none;align=left;verticalAlign=top;spacingLeft=4;spacingRight=4;overflow=hidden;rotatable=0;points=[[0,0.5],[1,0.5]];portConstraint=eastwest;whiteSpace=wrap;html=1;" parent="2qe7vK6OA9ovOPbLx4hL-124" vertex="1">
          <mxGeometry y="30" width="140" height="10" as="geometry" />
        </mxCell>
        <mxCell id="2qe7vK6OA9ovOPbLx4hL-126" value="«enumeration»&lt;br&gt;LobbyCommand" style="swimlane;fontStyle=0;childLayout=stackLayout;horizontal=1;startSize=30;fillColor=none;horizontalStack=0;resizeParent=1;resizeParentMax=0;resizeLast=0;collapsible=1;marginBottom=0;whiteSpace=wrap;html=1;" parent="1" vertex="1">
          <mxGeometry x="504" y="1559" width="140" height="40" as="geometry" />
        </mxCell>
        <mxCell id="2qe7vK6OA9ovOPbLx4hL-127" value="&lt;br&gt;" style="text;strokeColor=none;fillColor=none;align=left;verticalAlign=top;spacingLeft=4;spacingRight=4;overflow=hidden;rotatable=0;points=[[0,0.5],[1,0.5]];portConstraint=eastwest;whiteSpace=wrap;html=1;" parent="2qe7vK6OA9ovOPbLx4hL-126" vertex="1">
          <mxGeometry y="30" width="140" height="10" as="geometry" />
        </mxCell>
        <mxCell id="2qe7vK6OA9ovOPbLx4hL-128" value="«enumeration»&lt;br&gt;ConnectionCommand" style="swimlane;fontStyle=0;childLayout=stackLayout;horizontal=1;startSize=30;fillColor=none;horizontalStack=0;resizeParent=1;resizeParentMax=0;resizeLast=0;collapsible=1;marginBottom=0;whiteSpace=wrap;html=1;" parent="1" vertex="1">
          <mxGeometry x="504" y="1497" width="140" height="40" as="geometry" />
        </mxCell>
        <mxCell id="EsLmEgkiOm4dnzLNr7Mo-86" style="edgeStyle=orthogonalEdgeStyle;shape=connector;rounded=0;orthogonalLoop=1;jettySize=auto;html=1;exitX=0.25;exitY=1;exitDx=0;exitDy=0;entryX=0;entryY=0.25;entryDx=0;entryDy=0;labelBackgroundColor=default;strokeColor=default;fontFamily=Helvetica;fontSize=11;fontColor=default;endArrow=open;endFill=0;" parent="1" source="2qe7vK6OA9ovOPbLx4hL-130" target="2qe7vK6OA9ovOPbLx4hL-137" edge="1">
          <mxGeometry relative="1" as="geometry" />
        </mxCell>
        <mxCell id="2qe7vK6OA9ovOPbLx4hL-130" value="TextualUI" style="swimlane;fontStyle=1;align=center;verticalAlign=top;childLayout=stackLayout;horizontal=1;startSize=30;horizontalStack=0;resizeParent=1;resizeParentMax=0;resizeLast=0;collapsible=1;marginBottom=0;whiteSpace=wrap;html=1;" parent="1" vertex="1">
          <mxGeometry x="711" y="1457" width="160" height="50" as="geometry" />
        </mxCell>
        <mxCell id="2qe7vK6OA9ovOPbLx4hL-131" value="" style="line;strokeWidth=1;fillColor=none;align=left;verticalAlign=middle;spacingTop=-1;spacingLeft=3;spacingRight=3;rotatable=0;labelPosition=right;points=[];portConstraint=eastwest;strokeColor=inherit;" parent="2qe7vK6OA9ovOPbLx4hL-130" vertex="1">
          <mxGeometry y="30" width="160" height="20" as="geometry" />
        </mxCell>
        <mxCell id="2qe7vK6OA9ovOPbLx4hL-132" value="LobbyDisplayInfo" style="swimlane;fontStyle=1;align=center;verticalAlign=top;childLayout=stackLayout;horizontal=1;startSize=30;horizontalStack=0;resizeParent=1;resizeParentMax=0;resizeLast=0;collapsible=1;marginBottom=0;whiteSpace=wrap;html=1;" parent="1" vertex="1">
          <mxGeometry x="788" y="1603" width="160" height="47" as="geometry" />
        </mxCell>
        <mxCell id="2qe7vK6OA9ovOPbLx4hL-133" value="" style="line;strokeWidth=1;fillColor=none;align=left;verticalAlign=middle;spacingTop=-1;spacingLeft=3;spacingRight=3;rotatable=0;labelPosition=right;points=[];portConstraint=eastwest;strokeColor=inherit;" parent="2qe7vK6OA9ovOPbLx4hL-132" vertex="1">
          <mxGeometry y="30" width="160" height="17" as="geometry" />
        </mxCell>
        <mxCell id="2qe7vK6OA9ovOPbLx4hL-134" value="Printer" style="swimlane;fontStyle=1;align=center;verticalAlign=top;childLayout=stackLayout;horizontal=1;startSize=30;horizontalStack=0;resizeParent=1;resizeParentMax=0;resizeLast=0;collapsible=1;marginBottom=0;whiteSpace=wrap;html=1;" parent="1" vertex="1">
          <mxGeometry x="788" y="1531" width="160" height="52" as="geometry" />
        </mxCell>
        <mxCell id="2qe7vK6OA9ovOPbLx4hL-135" value="" style="line;strokeWidth=1;fillColor=none;align=left;verticalAlign=middle;spacingTop=-1;spacingLeft=3;spacingRight=3;rotatable=0;labelPosition=right;points=[];portConstraint=eastwest;strokeColor=inherit;" parent="2qe7vK6OA9ovOPbLx4hL-134" vertex="1">
          <mxGeometry y="30" width="160" height="22" as="geometry" />
        </mxCell>
        <mxCell id="2qe7vK6OA9ovOPbLx4hL-137" value="InputValidor" style="swimlane;fontStyle=1;align=center;verticalAlign=top;childLayout=stackLayout;horizontal=1;startSize=30;horizontalStack=0;resizeParent=1;resizeParentMax=0;resizeLast=0;collapsible=1;marginBottom=0;whiteSpace=wrap;html=1;fillColor=#FFFFFF;" parent="1" vertex="1">
          <mxGeometry x="865" y="1762" width="160" height="50" as="geometry" />
        </mxCell>
        <mxCell id="2qe7vK6OA9ovOPbLx4hL-138" value="" style="line;strokeWidth=1;align=left;verticalAlign=middle;spacingTop=-1;spacingLeft=3;spacingRight=3;rotatable=0;labelPosition=right;points=[];portConstraint=eastwest;" parent="2qe7vK6OA9ovOPbLx4hL-137" vertex="1">
          <mxGeometry y="30" width="160" height="20" as="geometry" />
        </mxCell>
        <mxCell id="EsLmEgkiOm4dnzLNr7Mo-101" style="edgeStyle=orthogonalEdgeStyle;shape=connector;rounded=0;orthogonalLoop=1;jettySize=auto;html=1;exitX=0.5;exitY=1;exitDx=0;exitDy=0;entryX=1;entryY=0.25;entryDx=0;entryDy=0;labelBackgroundColor=default;strokeColor=default;fontFamily=Helvetica;fontSize=11;fontColor=default;endArrow=open;endFill=0;" parent="1" source="2qe7vK6OA9ovOPbLx4hL-139" target="2qe7vK6OA9ovOPbLx4hL-143" edge="1">
          <mxGeometry relative="1" as="geometry" />
        </mxCell>
        <mxCell id="2qe7vK6OA9ovOPbLx4hL-139" value="GUI" style="swimlane;fontStyle=1;align=center;verticalAlign=top;childLayout=stackLayout;horizontal=1;startSize=30;horizontalStack=0;resizeParent=1;resizeParentMax=0;resizeLast=0;collapsible=1;marginBottom=0;whiteSpace=wrap;html=1;" parent="1" vertex="1">
          <mxGeometry x="1710" y="1480" width="160" height="58" as="geometry" />
        </mxCell>
        <mxCell id="2qe7vK6OA9ovOPbLx4hL-140" value="" style="line;strokeWidth=1;fillColor=none;align=left;verticalAlign=middle;spacingTop=-1;spacingLeft=3;spacingRight=3;rotatable=0;labelPosition=right;points=[];portConstraint=eastwest;strokeColor=inherit;" parent="2qe7vK6OA9ovOPbLx4hL-139" vertex="1">
          <mxGeometry y="30" width="160" height="28" as="geometry" />
        </mxCell>
        <mxCell id="EsLmEgkiOm4dnzLNr7Mo-102" style="edgeStyle=orthogonalEdgeStyle;shape=connector;rounded=0;orthogonalLoop=1;jettySize=auto;html=1;exitX=1;exitY=0.25;exitDx=0;exitDy=0;entryX=0;entryY=0.25;entryDx=0;entryDy=0;labelBackgroundColor=default;strokeColor=default;fontFamily=Helvetica;fontSize=11;fontColor=default;endArrow=open;endFill=0;" parent="1" source="2qe7vK6OA9ovOPbLx4hL-141" target="2qe7vK6OA9ovOPbLx4hL-139" edge="1">
          <mxGeometry relative="1" as="geometry" />
        </mxCell>
        <mxCell id="2qe7vK6OA9ovOPbLx4hL-141" value="MessageHandler" style="swimlane;fontStyle=1;align=center;verticalAlign=top;childLayout=stackLayout;horizontal=1;startSize=30;horizontalStack=0;resizeParent=1;resizeParentMax=0;resizeLast=0;collapsible=1;marginBottom=0;whiteSpace=wrap;html=1;" parent="1" vertex="1">
          <mxGeometry x="1340" y="1480" width="160" height="54" as="geometry" />
        </mxCell>
        <mxCell id="2qe7vK6OA9ovOPbLx4hL-142" value="" style="line;strokeWidth=1;fillColor=none;align=left;verticalAlign=middle;spacingTop=-1;spacingLeft=3;spacingRight=3;rotatable=0;labelPosition=right;points=[];portConstraint=eastwest;strokeColor=inherit;" parent="2qe7vK6OA9ovOPbLx4hL-141" vertex="1">
          <mxGeometry y="30" width="160" height="24" as="geometry" />
        </mxCell>
        <mxCell id="2qe7vK6OA9ovOPbLx4hL-143" value="«interface»&lt;br&gt;&lt;b&gt;Controller&lt;/b&gt;" style="html=1;whiteSpace=wrap;" parent="1" vertex="1">
          <mxGeometry x="1528" y="1568" width="110" height="50" as="geometry" />
        </mxCell>
        <mxCell id="2qe7vK6OA9ovOPbLx4hL-144" value="ConnectionController" style="swimlane;fontStyle=1;align=center;verticalAlign=top;childLayout=stackLayout;horizontal=1;startSize=30;horizontalStack=0;resizeParent=1;resizeParentMax=0;resizeLast=0;collapsible=1;marginBottom=0;whiteSpace=wrap;html=1;" parent="1" vertex="1">
          <mxGeometry x="1225" y="1604" width="160" height="60" as="geometry" />
        </mxCell>
        <mxCell id="2qe7vK6OA9ovOPbLx4hL-145" value="" style="line;strokeWidth=1;fillColor=none;align=left;verticalAlign=middle;spacingTop=-1;spacingLeft=3;spacingRight=3;rotatable=0;labelPosition=right;points=[];portConstraint=eastwest;strokeColor=inherit;" parent="2qe7vK6OA9ovOPbLx4hL-144" vertex="1">
          <mxGeometry y="30" width="160" height="30" as="geometry" />
        </mxCell>
        <mxCell id="2qe7vK6OA9ovOPbLx4hL-146" value="MenuSceneController" style="swimlane;fontStyle=1;align=center;verticalAlign=top;childLayout=stackLayout;horizontal=1;startSize=30;horizontalStack=0;resizeParent=1;resizeParentMax=0;resizeLast=0;collapsible=1;marginBottom=0;whiteSpace=wrap;html=1;" parent="1" vertex="1">
          <mxGeometry x="1260" y="1696" width="160" height="60" as="geometry" />
        </mxCell>
        <mxCell id="2qe7vK6OA9ovOPbLx4hL-147" value="" style="line;strokeWidth=1;fillColor=none;align=left;verticalAlign=middle;spacingTop=-1;spacingLeft=3;spacingRight=3;rotatable=0;labelPosition=right;points=[];portConstraint=eastwest;strokeColor=inherit;" parent="2qe7vK6OA9ovOPbLx4hL-146" vertex="1">
          <mxGeometry y="30" width="160" height="30" as="geometry" />
        </mxCell>
        <mxCell id="2qe7vK6OA9ovOPbLx4hL-148" value="ServerSceneController" style="swimlane;fontStyle=1;align=center;verticalAlign=top;childLayout=stackLayout;horizontal=1;startSize=30;horizontalStack=0;resizeParent=1;resizeParentMax=0;resizeLast=0;collapsible=1;marginBottom=0;whiteSpace=wrap;html=1;" parent="1" vertex="1">
          <mxGeometry x="1389" y="1764" width="160" height="60" as="geometry" />
        </mxCell>
        <mxCell id="2qe7vK6OA9ovOPbLx4hL-149" value="" style="line;strokeWidth=1;fillColor=none;align=left;verticalAlign=middle;spacingTop=-1;spacingLeft=3;spacingRight=3;rotatable=0;labelPosition=right;points=[];portConstraint=eastwest;strokeColor=inherit;" parent="2qe7vK6OA9ovOPbLx4hL-148" vertex="1">
          <mxGeometry y="30" width="160" height="30" as="geometry" />
        </mxCell>
        <mxCell id="2qe7vK6OA9ovOPbLx4hL-150" value="InLobbySceneController" style="swimlane;fontStyle=1;align=center;verticalAlign=top;childLayout=stackLayout;horizontal=1;startSize=30;horizontalStack=0;resizeParent=1;resizeParentMax=0;resizeLast=0;collapsible=1;marginBottom=0;whiteSpace=wrap;html=1;" parent="1" vertex="1">
          <mxGeometry x="1571" y="1759" width="160" height="60" as="geometry" />
        </mxCell>
        <mxCell id="2qe7vK6OA9ovOPbLx4hL-151" value="" style="line;strokeWidth=1;fillColor=none;align=left;verticalAlign=middle;spacingTop=-1;spacingLeft=3;spacingRight=3;rotatable=0;labelPosition=right;points=[];portConstraint=eastwest;strokeColor=inherit;" parent="2qe7vK6OA9ovOPbLx4hL-150" vertex="1">
          <mxGeometry y="30" width="160" height="30" as="geometry" />
        </mxCell>
        <mxCell id="2qe7vK6OA9ovOPbLx4hL-152" value="GameSceneController" style="swimlane;fontStyle=1;align=center;verticalAlign=top;childLayout=stackLayout;horizontal=1;startSize=30;horizontalStack=0;resizeParent=1;resizeParentMax=0;resizeLast=0;collapsible=1;marginBottom=0;whiteSpace=wrap;html=1;" parent="1" vertex="1">
          <mxGeometry x="1745" y="1709" width="160" height="60" as="geometry" />
        </mxCell>
        <mxCell id="2qe7vK6OA9ovOPbLx4hL-153" value="" style="line;strokeWidth=1;fillColor=none;align=left;verticalAlign=middle;spacingTop=-1;spacingLeft=3;spacingRight=3;rotatable=0;labelPosition=right;points=[];portConstraint=eastwest;strokeColor=inherit;" parent="2qe7vK6OA9ovOPbLx4hL-152" vertex="1">
          <mxGeometry y="30" width="160" height="30" as="geometry" />
        </mxCell>
        <mxCell id="wJdnqVq0FRM58SnaqcS5-37" style="edgeStyle=orthogonalEdgeStyle;rounded=0;orthogonalLoop=1;jettySize=auto;html=1;exitX=0.25;exitY=1;exitDx=0;exitDy=0;entryX=1;entryY=0.25;entryDx=0;entryDy=0;endArrow=open;endFill=0;startArrow=diamond;startFill=0;" parent="1" source="2qe7vK6OA9ovOPbLx4hL-53" target="2qe7vK6OA9ovOPbLx4hL-41" edge="1">
          <mxGeometry relative="1" as="geometry">
            <mxPoint x="431" y="298" as="targetPoint" />
            <Array as="points">
              <mxPoint x="686" y="218" />
              <mxPoint x="686" y="285" />
              <mxPoint x="521" y="285" />
            </Array>
          </mxGeometry>
        </mxCell>
        <mxCell id="wJdnqVq0FRM58SnaqcS5-40" style="edgeStyle=orthogonalEdgeStyle;rounded=0;orthogonalLoop=1;jettySize=auto;html=1;endArrow=open;endFill=0;startArrow=diamond;startFill=0;" parent="1" edge="1" target="2qe7vK6OA9ovOPbLx4hL-55">
          <mxGeometry relative="1" as="geometry">
            <Array as="points">
              <mxPoint x="701" y="332" />
            </Array>
            <mxPoint x="701" y="196" as="sourcePoint" />
            <mxPoint x="430" y="355" as="targetPoint" />
          </mxGeometry>
        </mxCell>
        <mxCell id="0dxOLFmI-FpMerj6NasB-27" value="1..1" style="edgeLabel;html=1;align=center;verticalAlign=middle;resizable=0;points=[];labelBackgroundColor=none;" parent="wJdnqVq0FRM58SnaqcS5-40" vertex="1" connectable="0">
          <mxGeometry x="0.8752" y="-2" relative="1" as="geometry">
            <mxPoint x="-4" y="-5" as="offset" />
          </mxGeometry>
        </mxCell>
        <mxCell id="wJdnqVq0FRM58SnaqcS5-49" style="edgeStyle=orthogonalEdgeStyle;rounded=0;orthogonalLoop=1;jettySize=auto;html=1;exitX=0;exitY=0.25;exitDx=0;exitDy=0;endArrow=open;endFill=0;startArrow=diamond;startFill=0;" parent="1" source="2qe7vK6OA9ovOPbLx4hL-53" target="2qe7vK6OA9ovOPbLx4hL-45" edge="1">
          <mxGeometry relative="1" as="geometry">
            <Array as="points">
              <mxPoint x="514" y="156" />
              <mxPoint x="514" y="156" />
            </Array>
          </mxGeometry>
        </mxCell>
        <mxCell id="wJdnqVq0FRM58SnaqcS5-59" style="edgeStyle=orthogonalEdgeStyle;rounded=0;orthogonalLoop=1;jettySize=auto;html=1;exitX=0.75;exitY=1;exitDx=0;exitDy=0;endArrow=open;endFill=0;" parent="1" source="2qe7vK6OA9ovOPbLx4hL-53" target="2qe7vK6OA9ovOPbLx4hL-39" edge="1">
          <mxGeometry relative="1" as="geometry">
            <mxPoint x="771" y="248" as="sourcePoint" />
            <Array as="points">
              <mxPoint x="743" y="273" />
              <mxPoint x="799" y="273" />
            </Array>
            <mxPoint x="846" y="293" as="targetPoint" />
          </mxGeometry>
        </mxCell>
        <mxCell id="EsLmEgkiOm4dnzLNr7Mo-6" style="edgeStyle=orthogonalEdgeStyle;rounded=0;orthogonalLoop=1;jettySize=auto;html=1;exitX=0.5;exitY=1;exitDx=0;exitDy=0;entryX=1;entryY=0.25;entryDx=0;entryDy=0;endArrow=open;endFill=0;startArrow=diamond;startFill=0;" parent="1" source="2qe7vK6OA9ovOPbLx4hL-53" target="2qe7vK6OA9ovOPbLx4hL-47" edge="1">
          <mxGeometry relative="1" as="geometry">
            <Array as="points">
              <mxPoint x="715" y="373" />
              <mxPoint x="451" y="373" />
              <mxPoint x="451" y="437" />
            </Array>
          </mxGeometry>
        </mxCell>
        <mxCell id="2qe7vK6OA9ovOPbLx4hL-53" value="Game" style="swimlane;fontStyle=1;align=center;verticalAlign=top;childLayout=stackLayout;horizontal=1;startSize=30;horizontalStack=0;resizeParent=1;resizeParentMax=0;resizeLast=0;collapsible=1;marginBottom=0;whiteSpace=wrap;html=1;" parent="1" vertex="1">
          <mxGeometry x="658" y="143" width="113" height="53" as="geometry" />
        </mxCell>
        <mxCell id="2qe7vK6OA9ovOPbLx4hL-54" value="" style="line;strokeWidth=1;fillColor=none;align=left;verticalAlign=middle;spacingTop=-1;spacingLeft=3;spacingRight=3;rotatable=0;labelPosition=right;points=[];portConstraint=eastwest;strokeColor=inherit;" parent="2qe7vK6OA9ovOPbLx4hL-53" vertex="1">
          <mxGeometry y="30" width="113" height="23" as="geometry" />
        </mxCell>
        <mxCell id="2qe7vK6OA9ovOPbLx4hL-70" value="«enumeration»&lt;br&gt;GamePhase" style="swimlane;fontStyle=0;childLayout=stackLayout;horizontal=1;startSize=30;horizontalStack=0;resizeParent=1;resizeParentMax=0;resizeLast=0;collapsible=1;marginBottom=0;whiteSpace=wrap;html=1;" parent="1" vertex="1">
          <mxGeometry x="821" y="218" width="140" height="40" as="geometry" />
        </mxCell>
        <mxCell id="2qe7vK6OA9ovOPbLx4hL-68" value="«enumeration»&lt;br&gt;TurnPhase" style="swimlane;fontStyle=0;childLayout=stackLayout;horizontal=1;startSize=30;horizontalStack=0;resizeParent=1;resizeParentMax=0;resizeLast=0;collapsible=1;marginBottom=0;whiteSpace=wrap;html=1;" parent="1" vertex="1">
          <mxGeometry x="821" y="168" width="140" height="40" as="geometry" />
        </mxCell>
        <mxCell id="wJdnqVq0FRM58SnaqcS5-53" value="" style="endArrow=open;html=1;rounded=0;exitX=0;exitY=0.5;exitDx=0;exitDy=0;entryX=0.25;entryY=0;entryDx=0;entryDy=0;endFill=0;" parent="1" source="2qe7vK6OA9ovOPbLx4hL-41" target="2qe7vK6OA9ovOPbLx4hL-47" edge="1">
          <mxGeometry width="50" height="50" relative="1" as="geometry">
            <mxPoint x="481" y="438" as="sourcePoint" />
            <mxPoint x="531" y="388" as="targetPoint" />
            <Array as="points">
              <mxPoint x="291" y="294" />
            </Array>
          </mxGeometry>
        </mxCell>
        <mxCell id="wJdnqVq0FRM58SnaqcS5-57" value="" style="endArrow=open;html=1;rounded=0;exitX=0;exitY=0.25;exitDx=0;exitDy=0;entryX=1;entryY=0.25;entryDx=0;entryDy=0;endFill=0;" parent="1" source="2qe7vK6OA9ovOPbLx4hL-55" target="2qe7vK6OA9ovOPbLx4hL-72" edge="1">
          <mxGeometry width="50" height="50" relative="1" as="geometry">
            <mxPoint x="481" y="438" as="sourcePoint" />
            <mxPoint x="531" y="388" as="targetPoint" />
          </mxGeometry>
        </mxCell>
        <mxCell id="wJdnqVq0FRM58SnaqcS5-60" value="" style="endArrow=open;html=1;rounded=0;entryX=0;entryY=0.5;entryDx=0;entryDy=0;exitX=1;exitY=0.5;exitDx=0;exitDy=0;endFill=0;" parent="1" source="2qe7vK6OA9ovOPbLx4hL-53" target="2qe7vK6OA9ovOPbLx4hL-70" edge="1">
          <mxGeometry width="50" height="50" relative="1" as="geometry">
            <mxPoint x="761" y="178" as="sourcePoint" />
            <mxPoint x="531" y="388" as="targetPoint" />
          </mxGeometry>
        </mxCell>
        <mxCell id="EsLmEgkiOm4dnzLNr7Mo-13" value="" style="endArrow=block;endSize=16;endFill=0;html=1;rounded=0;entryX=0;entryY=0.25;entryDx=0;entryDy=0;exitX=1;exitY=0.25;exitDx=0;exitDy=0;fillColor=#f8cecc;strokeColor=#b85450;strokeWidth=1.5;" parent="1" source="2qe7vK6OA9ovOPbLx4hL-53" target="2qe7vK6OA9ovOPbLx4hL-60" edge="1">
          <mxGeometry width="160" relative="1" as="geometry">
            <mxPoint x="1080" y="430" as="sourcePoint" />
            <mxPoint x="1280" y="620" as="targetPoint" />
            <Array as="points">
              <mxPoint x="935" y="160" />
              <mxPoint x="1100" y="160" />
              <mxPoint x="1097" y="603" />
            </Array>
          </mxGeometry>
        </mxCell>
        <mxCell id="EsLmEgkiOm4dnzLNr7Mo-15" value="" style="endArrow=open;html=1;rounded=0;entryX=0;entryY=0.5;entryDx=0;entryDy=0;exitX=1;exitY=0.5;exitDx=0;exitDy=0;endFill=0;" parent="1" source="2qe7vK6OA9ovOPbLx4hL-53" target="2qe7vK6OA9ovOPbLx4hL-68" edge="1">
          <mxGeometry width="50" height="50" relative="1" as="geometry">
            <mxPoint x="776" y="178" as="sourcePoint" />
            <mxPoint x="826" y="243" as="targetPoint" />
          </mxGeometry>
        </mxCell>
        <mxCell id="EsLmEgkiOm4dnzLNr7Mo-38" value="" style="endArrow=block;endSize=16;endFill=0;html=1;rounded=0;entryX=0;entryY=0.5;entryDx=0;entryDy=0;exitX=0.5;exitY=0;exitDx=0;exitDy=0;" parent="1" source="2qe7vK6OA9ovOPbLx4hL-110" target="2qe7vK6OA9ovOPbLx4hL-100" edge="1">
          <mxGeometry width="160" relative="1" as="geometry">
            <mxPoint x="1665.25" y="859.38" as="sourcePoint" />
            <mxPoint x="1825.25" y="859.38" as="targetPoint" />
            <Array as="points" />
          </mxGeometry>
        </mxCell>
        <mxCell id="EsLmEgkiOm4dnzLNr7Mo-39" value="" style="endArrow=block;endSize=16;endFill=0;html=1;rounded=0;entryX=0;entryY=0.5;entryDx=0;entryDy=0;exitX=0.5;exitY=0;exitDx=0;exitDy=0;" parent="1" source="2qe7vK6OA9ovOPbLx4hL-102" edge="1">
          <mxGeometry width="160" relative="1" as="geometry">
            <mxPoint x="1799.2125" y="920.0949999999999" as="sourcePoint" />
            <mxPoint x="1855.25" y="819.38" as="targetPoint" />
            <Array as="points" />
          </mxGeometry>
        </mxCell>
        <mxCell id="EsLmEgkiOm4dnzLNr7Mo-41" value="" style="endArrow=block;endSize=16;endFill=0;html=1;rounded=0;entryX=0.75;entryY=1;entryDx=0;entryDy=0;exitX=0.5;exitY=0;exitDx=0;exitDy=0;" parent="1" source="2qe7vK6OA9ovOPbLx4hL-103" target="2qe7vK6OA9ovOPbLx4hL-100" edge="1">
          <mxGeometry width="160" relative="1" as="geometry">
            <mxPoint x="2012.75" y="919.38" as="sourcePoint" />
            <mxPoint x="1932.25" y="826.88" as="targetPoint" />
            <Array as="points" />
          </mxGeometry>
        </mxCell>
        <mxCell id="EsLmEgkiOm4dnzLNr7Mo-42" value="" style="endArrow=block;endSize=16;endFill=0;html=1;rounded=0;entryX=1;entryY=0.5;entryDx=0;entryDy=0;exitX=0.5;exitY=0;exitDx=0;exitDy=0;" parent="1" source="2qe7vK6OA9ovOPbLx4hL-113" target="2qe7vK6OA9ovOPbLx4hL-100" edge="1">
          <mxGeometry width="160" relative="1" as="geometry">
            <mxPoint x="2060.25" y="925.88" as="sourcePoint" />
            <mxPoint x="2062.25" y="776.88" as="targetPoint" />
            <Array as="points" />
          </mxGeometry>
        </mxCell>
        <mxCell id="EsLmEgkiOm4dnzLNr7Mo-52" value="" style="endArrow=block;dashed=1;endFill=0;endSize=12;html=1;rounded=0;entryX=0;entryY=0.5;entryDx=0;entryDy=0;exitX=1;exitY=0.25;exitDx=0;exitDy=0;" parent="1" source="2qe7vK6OA9ovOPbLx4hL-96" target="2qe7vK6OA9ovOPbLx4hL-81" edge="1">
          <mxGeometry width="160" relative="1" as="geometry">
            <mxPoint x="613" y="912.5" as="sourcePoint" />
            <mxPoint x="773" y="912.5" as="targetPoint" />
          </mxGeometry>
        </mxCell>
        <mxCell id="EsLmEgkiOm4dnzLNr7Mo-54" value="" style="endArrow=block;dashed=1;endFill=0;endSize=12;html=1;rounded=0;entryX=1;entryY=0.5;entryDx=0;entryDy=0;exitX=0;exitY=0.25;exitDx=0;exitDy=0;" parent="1" source="2qe7vK6OA9ovOPbLx4hL-89" target="2qe7vK6OA9ovOPbLx4hL-81" edge="1">
          <mxGeometry width="160" relative="1" as="geometry">
            <mxPoint x="683" y="927.5" as="sourcePoint" />
            <mxPoint x="793" y="927.5" as="targetPoint" />
          </mxGeometry>
        </mxCell>
        <mxCell id="EsLmEgkiOm4dnzLNr7Mo-55" value="" style="endArrow=block;dashed=1;endFill=0;endSize=12;html=1;rounded=0;entryX=0;entryY=0.5;entryDx=0;entryDy=0;exitX=1;exitY=0.5;exitDx=0;exitDy=0;" parent="1" source="2qe7vK6OA9ovOPbLx4hL-98" target="2qe7vK6OA9ovOPbLx4hL-82" edge="1">
          <mxGeometry width="160" relative="1" as="geometry">
            <mxPoint x="668" y="800" as="sourcePoint" />
            <mxPoint x="778" y="800" as="targetPoint" />
          </mxGeometry>
        </mxCell>
        <mxCell id="EsLmEgkiOm4dnzLNr7Mo-56" value="" style="endArrow=block;dashed=1;endFill=0;endSize=12;html=1;rounded=0;exitX=0;exitY=0.25;exitDx=0;exitDy=0;entryX=1;entryY=0.25;entryDx=0;entryDy=0;" parent="1" source="2qe7vK6OA9ovOPbLx4hL-85" target="2qe7vK6OA9ovOPbLx4hL-82" edge="1">
          <mxGeometry width="160" relative="1" as="geometry">
            <mxPoint x="953" y="799.38" as="sourcePoint" />
            <mxPoint x="888" y="803" as="targetPoint" />
          </mxGeometry>
        </mxCell>
        <mxCell id="EsLmEgkiOm4dnzLNr7Mo-57" value="" style="endArrow=block;endSize=16;endFill=0;html=1;rounded=0;entryX=0.25;entryY=1;entryDx=0;entryDy=0;exitX=1;exitY=0.25;exitDx=0;exitDy=0;" parent="1" source="2qe7vK6OA9ovOPbLx4hL-130" target="2qe7vK6OA9ovOPbLx4hL-118" edge="1">
          <mxGeometry width="160" relative="1" as="geometry">
            <mxPoint x="1040" y="1134" as="sourcePoint" />
            <mxPoint x="1200" y="1134" as="targetPoint" />
            <Array as="points">
              <mxPoint x="1100" y="1470" />
            </Array>
          </mxGeometry>
        </mxCell>
        <mxCell id="EsLmEgkiOm4dnzLNr7Mo-59" value="" style="endArrow=block;endSize=16;endFill=0;html=1;rounded=0;entryX=0.5;entryY=1;entryDx=0;entryDy=0;exitX=0;exitY=0.25;exitDx=0;exitDy=0;" parent="1" source="2qe7vK6OA9ovOPbLx4hL-141" target="2qe7vK6OA9ovOPbLx4hL-118" edge="1">
          <mxGeometry width="160" relative="1" as="geometry">
            <mxPoint x="1065" y="1550" as="sourcePoint" />
            <mxPoint x="1305" y="1374" as="targetPoint" />
            <Array as="points">
              <mxPoint x="1140" y="1495" />
            </Array>
          </mxGeometry>
        </mxCell>
        <mxCell id="EsLmEgkiOm4dnzLNr7Mo-63" value="" style="endArrow=block;dashed=1;endFill=0;endSize=12;html=1;rounded=0;entryX=1;entryY=0.5;entryDx=0;entryDy=0;exitX=0;exitY=0.5;exitDx=0;exitDy=0;" parent="1" source="2qe7vK6OA9ovOPbLx4hL-118" target="2qe7vK6OA9ovOPbLx4hL-117" edge="1">
          <mxGeometry width="160" relative="1" as="geometry">
            <mxPoint x="990" y="1114" as="sourcePoint" />
            <mxPoint x="1150" y="1114" as="targetPoint" />
          </mxGeometry>
        </mxCell>
        <mxCell id="EsLmEgkiOm4dnzLNr7Mo-66" value="" style="endArrow=block;endSize=16;endFill=0;html=1;rounded=0;entryX=0;entryY=0.75;entryDx=0;entryDy=0;exitX=1;exitY=0.25;exitDx=0;exitDy=0;fillColor=#f8cecc;strokeColor=#b85450;strokeWidth=1.5;" parent="1" source="2qe7vK6OA9ovOPbLx4hL-118" target="2qe7vK6OA9ovOPbLx4hL-60" edge="1">
          <mxGeometry width="160" relative="1" as="geometry">
            <mxPoint x="949.5" y="680" as="sourcePoint" />
            <mxPoint x="1592.5" y="1120" as="targetPoint" />
            <Array as="points">
              <mxPoint x="1553" y="1273" />
              <mxPoint x="1553" y="1140" />
              <mxPoint x="1553" y="629" />
            </Array>
          </mxGeometry>
        </mxCell>
        <mxCell id="EsLmEgkiOm4dnzLNr7Mo-85" value="" style="endArrow=none;endFill=0;endSize=12;html=1;rounded=0;labelBackgroundColor=default;strokeColor=default;fontFamily=Helvetica;fontSize=11;fontColor=default;shape=connector;exitX=0.5;exitY=0;exitDx=0;exitDy=0;entryX=0.004;entryY=0.899;entryDx=0;entryDy=0;entryPerimeter=0;dashed=1;dashPattern=12 12;" parent="1" source="2qe7vK6OA9ovOPbLx4hL-117" target="2qe7vK6OA9ovOPbLx4hL-8" edge="1">
          <mxGeometry width="160" relative="1" as="geometry">
            <mxPoint x="1065" y="915" as="sourcePoint" />
            <mxPoint x="1225" y="915" as="targetPoint" />
            <Array as="points">
              <mxPoint x="915" y="1062" />
            </Array>
          </mxGeometry>
        </mxCell>
        <mxCell id="EsLmEgkiOm4dnzLNr7Mo-88" value="" style="endArrow=open;endFill=1;endSize=12;html=1;rounded=0;exitX=0;exitY=0.25;exitDx=0;exitDy=0;entryX=1;entryY=0.5;entryDx=0;entryDy=0;" parent="1" source="2qe7vK6OA9ovOPbLx4hL-130" target="2qe7vK6OA9ovOPbLx4hL-122" edge="1">
          <mxGeometry width="160" relative="1" as="geometry">
            <mxPoint x="659" y="1934" as="sourcePoint" />
            <mxPoint x="819" y="1934" as="targetPoint" />
          </mxGeometry>
        </mxCell>
        <mxCell id="EsLmEgkiOm4dnzLNr7Mo-89" value="" style="endArrow=open;endFill=1;endSize=12;html=1;rounded=0;exitX=0.005;exitY=0.379;exitDx=0;exitDy=0;entryX=1;entryY=0.25;entryDx=0;entryDy=0;exitPerimeter=0;" parent="1" source="2qe7vK6OA9ovOPbLx4hL-130" target="2qe7vK6OA9ovOPbLx4hL-128" edge="1">
          <mxGeometry width="160" relative="1" as="geometry">
            <mxPoint x="730" y="1498" as="sourcePoint" />
            <mxPoint x="629" y="1482" as="targetPoint" />
          </mxGeometry>
        </mxCell>
        <mxCell id="EsLmEgkiOm4dnzLNr7Mo-91" value="" style="endArrow=open;endFill=1;endSize=12;html=1;rounded=0;exitX=0;exitY=0.5;exitDx=0;exitDy=0;entryX=1;entryY=0.5;entryDx=0;entryDy=0;fontStyle=1" parent="1" source="2qe7vK6OA9ovOPbLx4hL-130" target="2qe7vK6OA9ovOPbLx4hL-126" edge="1">
          <mxGeometry width="160" relative="1" as="geometry">
            <mxPoint x="754" y="1552" as="sourcePoint" />
            <mxPoint x="653" y="1591" as="targetPoint" />
          </mxGeometry>
        </mxCell>
        <mxCell id="EsLmEgkiOm4dnzLNr7Mo-92" value="" style="endArrow=open;endFill=1;endSize=12;html=1;rounded=0;exitX=0;exitY=0.75;exitDx=0;exitDy=0;entryX=1;entryY=0.25;entryDx=0;entryDy=0;" parent="1" source="2qe7vK6OA9ovOPbLx4hL-130" target="2qe7vK6OA9ovOPbLx4hL-124" edge="1">
          <mxGeometry width="160" relative="1" as="geometry">
            <mxPoint x="773.5" y="1623" as="sourcePoint" />
            <mxPoint x="672.5" y="1662" as="targetPoint" />
          </mxGeometry>
        </mxCell>
        <mxCell id="EsLmEgkiOm4dnzLNr7Mo-93" value="" style="endArrow=block;dashed=1;endFill=0;endSize=12;html=1;rounded=0;entryX=0;entryY=0.25;entryDx=0;entryDy=0;exitX=1;exitY=0.25;exitDx=0;exitDy=0;" parent="1" source="2qe7vK6OA9ovOPbLx4hL-144" target="2qe7vK6OA9ovOPbLx4hL-143" edge="1">
          <mxGeometry width="160" relative="1" as="geometry">
            <mxPoint x="1540" y="1157" as="sourcePoint" />
            <mxPoint x="1577" y="1217" as="targetPoint" />
          </mxGeometry>
        </mxCell>
        <mxCell id="EsLmEgkiOm4dnzLNr7Mo-94" value="" style="endArrow=block;dashed=1;endFill=0;endSize=12;html=1;rounded=0;entryX=0;entryY=0.75;entryDx=0;entryDy=0;exitX=0.5;exitY=0;exitDx=0;exitDy=0;" parent="1" source="2qe7vK6OA9ovOPbLx4hL-146" target="2qe7vK6OA9ovOPbLx4hL-143" edge="1">
          <mxGeometry width="160" relative="1" as="geometry">
            <mxPoint x="1417" y="1722" as="sourcePoint" />
            <mxPoint x="1550" y="1662" as="targetPoint" />
          </mxGeometry>
        </mxCell>
        <mxCell id="EsLmEgkiOm4dnzLNr7Mo-95" value="" style="endArrow=block;dashed=1;endFill=0;endSize=12;html=1;rounded=0;exitX=0.5;exitY=0;exitDx=0;exitDy=0;entryX=0.25;entryY=1;entryDx=0;entryDy=0;" parent="1" source="2qe7vK6OA9ovOPbLx4hL-148" target="2qe7vK6OA9ovOPbLx4hL-143" edge="1">
          <mxGeometry width="160" relative="1" as="geometry">
            <mxPoint x="1447" y="1738" as="sourcePoint" />
            <mxPoint x="1600" y="1628" as="targetPoint" />
          </mxGeometry>
        </mxCell>
        <mxCell id="EsLmEgkiOm4dnzLNr7Mo-98" value="" style="endArrow=block;dashed=1;endFill=0;endSize=12;html=1;rounded=0;exitX=0.25;exitY=0;exitDx=0;exitDy=0;entryX=0.75;entryY=1;entryDx=0;entryDy=0;" parent="1" source="2qe7vK6OA9ovOPbLx4hL-150" target="2qe7vK6OA9ovOPbLx4hL-143" edge="1">
          <mxGeometry width="160" relative="1" as="geometry">
            <mxPoint x="1613" y="1730" as="sourcePoint" />
            <mxPoint x="1622" y="1620" as="targetPoint" />
          </mxGeometry>
        </mxCell>
        <mxCell id="EsLmEgkiOm4dnzLNr7Mo-100" value="" style="endArrow=block;dashed=1;endFill=0;endSize=12;html=1;rounded=0;exitX=0;exitY=0.25;exitDx=0;exitDy=0;entryX=1;entryY=0.75;entryDx=0;entryDy=0;" parent="1" source="2qe7vK6OA9ovOPbLx4hL-152" target="2qe7vK6OA9ovOPbLx4hL-143" edge="1">
          <mxGeometry width="160" relative="1" as="geometry">
            <mxPoint x="1710" y="1719" as="sourcePoint" />
            <mxPoint x="1719" y="1609" as="targetPoint" />
          </mxGeometry>
        </mxCell>
        <mxCell id="wP5G0lFItCHbFADRsHWj-1" value="EndGameController" style="swimlane;fontStyle=1;align=center;verticalAlign=top;childLayout=stackLayout;horizontal=1;startSize=30;horizontalStack=0;resizeParent=1;resizeParentMax=0;resizeLast=0;collapsible=1;marginBottom=0;whiteSpace=wrap;html=1;" parent="1" vertex="1">
          <mxGeometry x="1775" y="1627" width="160" height="60" as="geometry" />
        </mxCell>
        <mxCell id="wP5G0lFItCHbFADRsHWj-2" value="" style="line;strokeWidth=1;fillColor=none;align=left;verticalAlign=middle;spacingTop=-1;spacingLeft=3;spacingRight=3;rotatable=0;labelPosition=right;points=[];portConstraint=eastwest;strokeColor=inherit;" parent="wP5G0lFItCHbFADRsHWj-1" vertex="1">
          <mxGeometry y="30" width="160" height="30" as="geometry" />
        </mxCell>
        <mxCell id="wP5G0lFItCHbFADRsHWj-3" value="" style="endArrow=block;dashed=1;endFill=0;endSize=12;html=1;rounded=0;exitX=0;exitY=0.25;exitDx=0;exitDy=0;entryX=1;entryY=0.5;entryDx=0;entryDy=0;" parent="1" source="wP5G0lFItCHbFADRsHWj-1" target="2qe7vK6OA9ovOPbLx4hL-143" edge="1">
          <mxGeometry width="160" relative="1" as="geometry">
            <mxPoint x="1750" y="1729" as="sourcePoint" />
            <mxPoint x="1643" y="1611" as="targetPoint" />
          </mxGeometry>
        </mxCell>
        <mxCell id="wP5G0lFItCHbFADRsHWj-4" style="edgeStyle=orthogonalEdgeStyle;shape=connector;rounded=0;orthogonalLoop=1;jettySize=auto;html=1;exitX=1;exitY=0.75;exitDx=0;exitDy=0;entryX=1;entryY=0.25;entryDx=0;entryDy=0;labelBackgroundColor=default;strokeColor=default;fontFamily=Helvetica;fontSize=11;fontColor=default;endArrow=open;endFill=0;" parent="1" source="2qe7vK6OA9ovOPbLx4hL-130" target="2qe7vK6OA9ovOPbLx4hL-134" edge="1">
          <mxGeometry relative="1" as="geometry">
            <mxPoint x="790" y="1462" as="sourcePoint" />
            <mxPoint x="720" y="1252" as="targetPoint" />
          </mxGeometry>
        </mxCell>
        <mxCell id="0dxOLFmI-FpMerj6NasB-1" value="CommonGoalCard&lt;br&gt;8SameTiles" style="swimlane;fontStyle=0;align=center;verticalAlign=top;childLayout=stackLayout;horizontal=1;startSize=34;horizontalStack=0;resizeParent=1;resizeParentMax=0;resizeLast=0;collapsible=1;marginBottom=0;whiteSpace=wrap;html=1;" parent="1" vertex="1">
          <mxGeometry x="530.5" y="425" width="127.5" height="47" as="geometry" />
        </mxCell>
        <mxCell id="0dxOLFmI-FpMerj6NasB-2" value="" style="line;strokeWidth=1;fillColor=none;align=left;verticalAlign=middle;spacingTop=-1;spacingLeft=3;spacingRight=3;rotatable=0;labelPosition=right;points=[];portConstraint=eastwest;strokeColor=inherit;" parent="0dxOLFmI-FpMerj6NasB-1" vertex="1">
          <mxGeometry y="34" width="127.5" height="13" as="geometry" />
        </mxCell>
        <mxCell id="0dxOLFmI-FpMerj6NasB-3" value="CommonGoalCardGroups" style="swimlane;fontStyle=0;align=center;verticalAlign=top;childLayout=stackLayout;horizontal=1;startSize=25;horizontalStack=0;resizeParent=1;resizeParentMax=0;resizeLast=0;collapsible=1;marginBottom=0;whiteSpace=wrap;html=1;" parent="1" vertex="1">
          <mxGeometry x="566" y="480" width="144" height="38" as="geometry" />
        </mxCell>
        <mxCell id="0dxOLFmI-FpMerj6NasB-4" value="" style="line;strokeWidth=1;fillColor=none;align=left;verticalAlign=middle;spacingTop=-1;spacingLeft=3;spacingRight=3;rotatable=0;labelPosition=right;points=[];portConstraint=eastwest;strokeColor=inherit;" parent="0dxOLFmI-FpMerj6NasB-3" vertex="1">
          <mxGeometry y="25" width="144" height="13" as="geometry" />
        </mxCell>
        <mxCell id="0dxOLFmI-FpMerj6NasB-5" value="CommonGoalCardShapes" style="swimlane;fontStyle=0;align=center;verticalAlign=top;childLayout=stackLayout;horizontal=1;startSize=25;horizontalStack=0;resizeParent=1;resizeParentMax=0;resizeLast=0;collapsible=1;marginBottom=0;whiteSpace=wrap;html=1;" parent="1" vertex="1">
          <mxGeometry x="716" y="505" width="149" height="38" as="geometry" />
        </mxCell>
        <mxCell id="0dxOLFmI-FpMerj6NasB-6" value="" style="line;strokeWidth=1;fillColor=none;align=left;verticalAlign=middle;spacingTop=-1;spacingLeft=3;spacingRight=3;rotatable=0;labelPosition=right;points=[];portConstraint=eastwest;strokeColor=inherit;" parent="0dxOLFmI-FpMerj6NasB-5" vertex="1">
          <mxGeometry y="25" width="149" height="13" as="geometry" />
        </mxCell>
        <mxCell id="0dxOLFmI-FpMerj6NasB-7" value="CommonGoalCardStairs" style="swimlane;fontStyle=0;align=center;verticalAlign=top;childLayout=stackLayout;horizontal=1;startSize=25;horizontalStack=0;resizeParent=1;resizeParentMax=0;resizeLast=0;collapsible=1;marginBottom=0;whiteSpace=wrap;html=1;" parent="1" vertex="1">
          <mxGeometry x="869" y="470" width="143.5" height="38" as="geometry" />
        </mxCell>
        <mxCell id="0dxOLFmI-FpMerj6NasB-8" value="" style="line;strokeWidth=1;fillColor=none;align=left;verticalAlign=middle;spacingTop=-1;spacingLeft=3;spacingRight=3;rotatable=0;labelPosition=right;points=[];portConstraint=eastwest;strokeColor=inherit;" parent="0dxOLFmI-FpMerj6NasB-7" vertex="1">
          <mxGeometry y="25" width="143.5" height="13" as="geometry" />
        </mxCell>
        <mxCell id="0dxOLFmI-FpMerj6NasB-10" value="CommonGoalCardStairs" style="swimlane;fontStyle=0;align=center;verticalAlign=top;childLayout=stackLayout;horizontal=1;startSize=25;horizontalStack=0;resizeParent=1;resizeParentMax=0;resizeLast=0;collapsible=1;marginBottom=0;whiteSpace=wrap;html=1;" parent="1" vertex="1">
          <mxGeometry x="918" y="411" width="143.5" height="38" as="geometry" />
        </mxCell>
        <mxCell id="0dxOLFmI-FpMerj6NasB-11" value="" style="line;strokeWidth=1;fillColor=none;align=left;verticalAlign=middle;spacingTop=-1;spacingLeft=3;spacingRight=3;rotatable=0;labelPosition=right;points=[];portConstraint=eastwest;strokeColor=inherit;" parent="0dxOLFmI-FpMerj6NasB-10" vertex="1">
          <mxGeometry y="25" width="143.5" height="13" as="geometry" />
        </mxCell>
        <mxCell id="0dxOLFmI-FpMerj6NasB-12" value="CommonGoalCardStairs" style="swimlane;fontStyle=0;align=center;verticalAlign=top;childLayout=stackLayout;horizontal=1;startSize=25;horizontalStack=0;resizeParent=1;resizeParentMax=0;resizeLast=0;collapsible=1;marginBottom=0;whiteSpace=wrap;html=1;" parent="1" vertex="1">
          <mxGeometry x="930" y="316" width="143.5" height="38" as="geometry" />
        </mxCell>
        <mxCell id="0dxOLFmI-FpMerj6NasB-13" value="" style="line;strokeWidth=1;fillColor=none;align=left;verticalAlign=middle;spacingTop=-1;spacingLeft=3;spacingRight=3;rotatable=0;labelPosition=right;points=[];portConstraint=eastwest;strokeColor=inherit;" parent="0dxOLFmI-FpMerj6NasB-12" vertex="1">
          <mxGeometry y="25" width="143.5" height="13" as="geometry" />
        </mxCell>
        <mxCell id="0dxOLFmI-FpMerj6NasB-18" value="" style="endArrow=block;endSize=16;endFill=0;html=1;rounded=0;entryX=0.75;entryY=0;entryDx=0;entryDy=0;exitX=0;exitY=0.25;exitDx=0;exitDy=0;" parent="1" source="0dxOLFmI-FpMerj6NasB-12" target="2qe7vK6OA9ovOPbLx4hL-39" edge="1">
          <mxGeometry width="160" relative="1" as="geometry">
            <mxPoint x="1123" y="415" as="sourcePoint" />
            <mxPoint x="1228" y="348" as="targetPoint" />
            <Array as="points" />
          </mxGeometry>
        </mxCell>
        <mxCell id="0dxOLFmI-FpMerj6NasB-20" value="" style="endArrow=block;endSize=16;endFill=0;html=1;rounded=0;exitX=0;exitY=0.25;exitDx=0;exitDy=0;entryX=0.75;entryY=1;entryDx=0;entryDy=0;" parent="1" source="0dxOLFmI-FpMerj6NasB-10" target="2qe7vK6OA9ovOPbLx4hL-39" edge="1">
          <mxGeometry width="160" relative="1" as="geometry">
            <mxPoint x="1118" y="441" as="sourcePoint" />
            <mxPoint x="859" y="412" as="targetPoint" />
            <Array as="points" />
          </mxGeometry>
        </mxCell>
        <mxCell id="0dxOLFmI-FpMerj6NasB-21" value="" style="endArrow=block;endSize=16;endFill=0;html=1;rounded=0;entryX=0.5;entryY=1;entryDx=0;entryDy=0;exitX=0.25;exitY=0;exitDx=0;exitDy=0;" parent="1" source="0dxOLFmI-FpMerj6NasB-7" target="2qe7vK6OA9ovOPbLx4hL-39" edge="1">
          <mxGeometry width="160" relative="1" as="geometry">
            <mxPoint x="1174" y="426" as="sourcePoint" />
            <mxPoint x="1085" y="459" as="targetPoint" />
            <Array as="points" />
          </mxGeometry>
        </mxCell>
        <mxCell id="0dxOLFmI-FpMerj6NasB-22" value="" style="endArrow=block;endSize=16;endFill=0;html=1;rounded=0;exitX=0.5;exitY=0;exitDx=0;exitDy=0;" parent="1" source="0dxOLFmI-FpMerj6NasB-5" edge="1">
          <mxGeometry width="160" relative="1" as="geometry">
            <mxPoint x="865" y="487" as="sourcePoint" />
            <mxPoint x="782" y="407" as="targetPoint" />
            <Array as="points" />
          </mxGeometry>
        </mxCell>
        <mxCell id="0dxOLFmI-FpMerj6NasB-23" value="" style="endArrow=block;endSize=16;endFill=0;html=1;rounded=0;exitX=0.75;exitY=0;exitDx=0;exitDy=0;entryX=0.25;entryY=1;entryDx=0;entryDy=0;" parent="1" source="0dxOLFmI-FpMerj6NasB-3" target="2qe7vK6OA9ovOPbLx4hL-39" edge="1">
          <mxGeometry width="160" relative="1" as="geometry">
            <mxPoint x="693" y="509" as="sourcePoint" />
            <mxPoint x="685" y="411" as="targetPoint" />
            <Array as="points" />
          </mxGeometry>
        </mxCell>
        <mxCell id="0dxOLFmI-FpMerj6NasB-24" value="" style="endArrow=block;endSize=16;endFill=0;html=1;rounded=0;" parent="1" source="0dxOLFmI-FpMerj6NasB-1" edge="1">
          <mxGeometry width="160" relative="1" as="geometry">
            <mxPoint x="696" y="486" as="sourcePoint" />
            <mxPoint x="721" y="400" as="targetPoint" />
            <Array as="points" />
          </mxGeometry>
        </mxCell>
        <mxCell id="0dxOLFmI-FpMerj6NasB-26" style="edgeStyle=orthogonalEdgeStyle;rounded=0;orthogonalLoop=1;jettySize=auto;html=1;entryX=1;entryY=0.25;entryDx=0;entryDy=0;exitX=1;exitY=0.75;exitDx=0;exitDy=0;endArrow=open;endFill=0;startArrow=diamond;startFill=0;" parent="1" source="2qe7vK6OA9ovOPbLx4hL-85" target="2qe7vK6OA9ovOPbLx4hL-89" edge="1">
          <mxGeometry relative="1" as="geometry">
            <Array as="points">
              <mxPoint x="1201" y="803" />
              <mxPoint x="1201" y="920" />
            </Array>
          </mxGeometry>
        </mxCell>
        <mxCell id="0dxOLFmI-FpMerj6NasB-30" value="1..1" style="edgeLabel;html=1;align=center;verticalAlign=middle;resizable=0;points=[];labelBackgroundColor=none;" parent="1" vertex="1" connectable="0">
          <mxGeometry x="674.0021052631582" y="208.0000000000001" as="geometry" />
        </mxCell>
        <mxCell id="0dxOLFmI-FpMerj6NasB-31" value="2..4" style="edgeLabel;html=1;align=center;verticalAlign=middle;resizable=0;points=[];labelBackgroundColor=none;" parent="1" vertex="1" connectable="0">
          <mxGeometry x="455.0021052631581" y="275.0000000000001" as="geometry" />
        </mxCell>
        <mxCell id="0dxOLFmI-FpMerj6NasB-32" value="2..4" style="edgeLabel;html=1;align=center;verticalAlign=middle;resizable=0;points=[];labelBackgroundColor=none;" parent="1" vertex="1" connectable="0">
          <mxGeometry x="431.00210526315817" y="434.0000000000001" as="geometry">
            <mxPoint x="3" y="-3" as="offset" />
          </mxGeometry>
        </mxCell>
        <mxCell id="0dxOLFmI-FpMerj6NasB-34" value="1..1" style="edgeLabel;html=1;align=center;verticalAlign=middle;resizable=0;points=[];labelBackgroundColor=none;" parent="1" vertex="1" connectable="0">
          <mxGeometry x="635.0021052631582" y="149.0000000000001" as="geometry">
            <mxPoint as="offset" />
          </mxGeometry>
        </mxCell>
        <mxCell id="0dxOLFmI-FpMerj6NasB-35" value="1..1" style="edgeLabel;html=1;align=center;verticalAlign=middle;resizable=0;points=[];labelBackgroundColor=none;" parent="1" vertex="1" connectable="0">
          <mxGeometry x="495.0021052631582" y="149.0000000000001" as="geometry" />
        </mxCell>
        <mxCell id="0dxOLFmI-FpMerj6NasB-37" value="1..1" style="edgeLabel;html=1;align=center;verticalAlign=middle;resizable=0;points=[];labelBackgroundColor=none;fontSize=9;" parent="1" vertex="1" connectable="0">
          <mxGeometry x="1022" y="821" as="geometry" />
        </mxCell>
        <mxCell id="0dxOLFmI-FpMerj6NasB-38" value="0..n" style="edgeLabel;html=1;align=center;verticalAlign=middle;resizable=0;points=[];labelBackgroundColor=none;" parent="1" vertex="1" connectable="0">
          <mxGeometry x="1059" y="838" as="geometry" />
        </mxCell>
        <mxCell id="0dxOLFmI-FpMerj6NasB-39" value="0..n" style="edgeLabel;html=1;align=center;verticalAlign=middle;resizable=0;points=[];labelBackgroundColor=none;" parent="1" vertex="1" connectable="0">
          <mxGeometry x="1137" y="930" as="geometry">
            <mxPoint x="-1" y="1" as="offset" />
          </mxGeometry>
        </mxCell>
        <mxCell id="0dxOLFmI-FpMerj6NasB-40" value="0..n" style="edgeLabel;html=1;align=center;verticalAlign=middle;resizable=0;points=[];labelBackgroundColor=none;" parent="1" vertex="1" connectable="0">
          <mxGeometry x="1284" y="856" as="geometry">
            <mxPoint x="-1" y="1" as="offset" />
          </mxGeometry>
        </mxCell>
        <mxCell id="0dxOLFmI-FpMerj6NasB-41" value="«interface»&lt;b&gt;&lt;br&gt;MsgToServer&lt;/b&gt;" style="html=1;whiteSpace=wrap;" parent="1" vertex="1">
          <mxGeometry x="2066.25" y="1009.38" width="110" height="50" as="geometry" />
        </mxCell>
        <mxCell id="0dxOLFmI-FpMerj6NasB-42" value="«interface»&lt;b&gt;&lt;br&gt;MsgToClient&lt;/b&gt;" style="html=1;whiteSpace=wrap;" parent="1" vertex="1">
          <mxGeometry x="1655.25" y="1009.38" width="110" height="50" as="geometry" />
        </mxCell>
        <mxCell id="0dxOLFmI-FpMerj6NasB-45" value="«enumeration»&lt;br&gt;MessageType" style="swimlane;fontStyle=0;childLayout=stackLayout;horizontal=1;startSize=30;fillColor=none;horizontalStack=0;resizeParent=1;resizeParentMax=0;resizeLast=0;collapsible=1;marginBottom=0;whiteSpace=wrap;html=1;" parent="1" vertex="1">
          <mxGeometry x="2122.25" y="757.38" width="140" height="40" as="geometry" />
        </mxCell>
        <mxCell id="0dxOLFmI-FpMerj6NasB-46" value="&lt;br&gt;" style="text;strokeColor=none;fillColor=none;align=left;verticalAlign=top;spacingLeft=4;spacingRight=4;overflow=hidden;rotatable=0;points=[[0,0.5],[1,0.5]];portConstraint=eastwest;whiteSpace=wrap;html=1;" parent="0dxOLFmI-FpMerj6NasB-45" vertex="1">
          <mxGeometry y="30" width="140" height="10" as="geometry" />
        </mxCell>
        <mxCell id="cdpya03TlAhg0dvpT6m7-1" style="edgeStyle=orthogonalEdgeStyle;shape=connector;rounded=0;orthogonalLoop=1;jettySize=auto;html=1;exitX=1;exitY=0.5;exitDx=0;exitDy=0;entryX=0;entryY=0.25;entryDx=0;entryDy=0;labelBackgroundColor=default;strokeColor=default;fontFamily=Helvetica;fontSize=11;fontColor=default;endArrow=open;endFill=0;" edge="1" parent="1" source="2qe7vK6OA9ovOPbLx4hL-87" target="2qe7vK6OA9ovOPbLx4hL-62">
          <mxGeometry relative="1" as="geometry">
            <Array as="points">
              <mxPoint x="1179" y="863" />
              <mxPoint x="1179" y="218" />
            </Array>
            <mxPoint x="1128" y="858" as="sourcePoint" />
            <mxPoint x="748" y="148" as="targetPoint" />
          </mxGeometry>
        </mxCell>
        <mxCell id="cdpya03TlAhg0dvpT6m7-4" style="edgeStyle=orthogonalEdgeStyle;shape=connector;rounded=0;orthogonalLoop=1;jettySize=auto;html=1;entryX=0.5;entryY=0;entryDx=0;entryDy=0;labelBackgroundColor=default;strokeColor=default;fontFamily=Helvetica;fontSize=11;fontColor=default;endArrow=open;endFill=0;startArrow=diamond;startFill=0;exitX=0.5;exitY=1;exitDx=0;exitDy=0;" edge="1" parent="1" source="2qe7vK6OA9ovOPbLx4hL-87" target="2qe7vK6OA9ovOPbLx4hL-89">
          <mxGeometry relative="1" as="geometry">
            <mxPoint x="1153" y="973" as="sourcePoint" />
            <mxPoint x="1152" y="1001" as="targetPoint" />
            <Array as="points" />
          </mxGeometry>
        </mxCell>
        <mxCell id="cdpya03TlAhg0dvpT6m7-5" value="1..n" style="edgeLabel;html=1;align=center;verticalAlign=middle;resizable=0;points=[];labelBackgroundColor=none;" vertex="1" connectable="0" parent="1">
          <mxGeometry x="1058" y="904.38" as="geometry" />
        </mxCell>
        <mxCell id="cdpya03TlAhg0dvpT6m7-6" value="0..1" style="edgeLabel;html=1;align=center;verticalAlign=middle;resizable=0;points=[];labelBackgroundColor=none;fontSize=9;" vertex="1" connectable="0" parent="1">
          <mxGeometry x="1022" y="888" as="geometry" />
        </mxCell>
        <mxCell id="cdpya03TlAhg0dvpT6m7-7" style="edgeStyle=orthogonalEdgeStyle;shape=connector;rounded=0;orthogonalLoop=1;jettySize=auto;html=1;exitX=0.003;exitY=0.849;exitDx=0;exitDy=0;entryX=1;entryY=0.25;entryDx=0;entryDy=0;labelBackgroundColor=default;strokeColor=default;fontFamily=Helvetica;fontSize=11;fontColor=default;endArrow=open;endFill=0;exitPerimeter=0;" edge="1" parent="1" source="2qe7vK6OA9ovOPbLx4hL-121" target="2qe7vK6OA9ovOPbLx4hL-137">
          <mxGeometry relative="1" as="geometry">
            <mxPoint x="756" y="1512" as="sourcePoint" />
            <mxPoint x="870" y="1780" as="targetPoint" />
          </mxGeometry>
        </mxCell>
        <mxCell id="cdpya03TlAhg0dvpT6m7-8" value="0..n" style="edgeLabel;html=1;align=center;verticalAlign=middle;resizable=0;points=[];labelBackgroundColor=none;" vertex="1" connectable="0" parent="1">
          <mxGeometry x="194.00210526315817" y="288.0000000000001" as="geometry">
            <mxPoint x="3" y="-3" as="offset" />
          </mxGeometry>
        </mxCell>
        <mxCell id="cdpya03TlAhg0dvpT6m7-9" value="Squares" style="swimlane;fontStyle=1;align=center;verticalAlign=top;childLayout=stackLayout;horizontal=1;startSize=30;horizontalStack=0;resizeParent=1;resizeParentMax=0;resizeLast=0;collapsible=1;marginBottom=0;whiteSpace=wrap;html=1;" vertex="1" parent="1">
          <mxGeometry x="243" y="143" width="77" height="52" as="geometry" />
        </mxCell>
        <mxCell id="cdpya03TlAhg0dvpT6m7-10" value="" style="line;strokeWidth=1;fillColor=none;align=left;verticalAlign=middle;spacingTop=-1;spacingLeft=3;spacingRight=3;rotatable=0;labelPosition=right;points=[];portConstraint=eastwest;strokeColor=inherit;" vertex="1" parent="cdpya03TlAhg0dvpT6m7-9">
          <mxGeometry y="30" width="77" height="22" as="geometry" />
        </mxCell>
        <mxCell id="cdpya03TlAhg0dvpT6m7-11" style="edgeStyle=orthogonalEdgeStyle;rounded=0;orthogonalLoop=1;jettySize=auto;html=1;exitX=0;exitY=0.25;exitDx=0;exitDy=0;entryX=0;entryY=0.25;entryDx=0;entryDy=0;endArrow=open;endFill=0;startArrow=diamond;startFill=0;" edge="1" parent="1" source="cdpya03TlAhg0dvpT6m7-9" target="2qe7vK6OA9ovOPbLx4hL-49">
          <mxGeometry relative="1" as="geometry">
            <mxPoint x="544" y="234" as="sourcePoint" />
            <mxPoint x="476" y="174" as="targetPoint" />
            <Array as="points">
              <mxPoint x="81" y="156" />
              <mxPoint x="81" y="304" />
            </Array>
          </mxGeometry>
        </mxCell>
        <mxCell id="cdpya03TlAhg0dvpT6m7-12" style="edgeStyle=orthogonalEdgeStyle;rounded=0;orthogonalLoop=1;jettySize=auto;html=1;exitX=0;exitY=0.25;exitDx=0;exitDy=0;endArrow=open;endFill=0;startArrow=diamond;startFill=0;entryX=1;entryY=0.25;entryDx=0;entryDy=0;" edge="1" parent="1" source="2qe7vK6OA9ovOPbLx4hL-45" target="cdpya03TlAhg0dvpT6m7-9">
          <mxGeometry relative="1" as="geometry">
            <mxPoint x="181" y="250" as="sourcePoint" />
            <mxPoint x="343" y="156" as="targetPoint" />
          </mxGeometry>
        </mxCell>
        <mxCell id="cdpya03TlAhg0dvpT6m7-13" value="" style="endArrow=open;html=1;rounded=0;exitX=0.5;exitY=1;exitDx=0;exitDy=0;entryX=0.853;entryY=0.037;entryDx=0;entryDy=0;endFill=0;entryPerimeter=0;" edge="1" parent="1" source="2qe7vK6OA9ovOPbLx4hL-55" target="2qe7vK6OA9ovOPbLx4hL-47">
          <mxGeometry width="50" height="50" relative="1" as="geometry">
            <mxPoint x="346" y="342" as="sourcePoint" />
            <mxPoint x="251" y="383" as="targetPoint" />
          </mxGeometry>
        </mxCell>
        <mxCell id="cdpya03TlAhg0dvpT6m7-15" value="0..n" style="edgeLabel;html=1;align=center;verticalAlign=middle;resizable=0;points=[];labelBackgroundColor=none;" vertex="1" connectable="0" parent="1">
          <mxGeometry x="341.0021052631582" y="151.0000000000001" as="geometry" />
        </mxCell>
        <mxCell id="cdpya03TlAhg0dvpT6m7-16" value="1..1" style="edgeLabel;html=1;align=center;verticalAlign=middle;resizable=0;points=[];labelBackgroundColor=none;" vertex="1" connectable="0" parent="1">
          <mxGeometry x="92.00210526315823" y="310.0000000000001" as="geometry" />
        </mxCell>
      </root>
    </mxGraphModel>
  </diagram>
</mxfile>
